<svg width="1441" height="551" viewBox="0 0 1441 551" fill="none" xmlns="http://www.w3.org/2000/svg">
<g clip-path="url(#clip0)">
<rect width="1441" height="551" fill="white"/>
<path d="M1465.17 544.929C1492.46 498.813 1483.69 438.818 1466.93 388.696C1464.14 380.33 1462.21 371.091 1456.59 364.905C1450.98 358.719 1441.57 357.252 1436.28 363.557C1431.89 368.751 1431.79 377.078 1430.7 384.374C1429.19 394.139 1425.4 403.197 1419.76 410.506C1416.1 415.264 1411.02 419.348 1405.67 418.436C1398.32 417.009 1394.56 407.254 1392.04 398.61L1378.08 351.423C1375.95 342.822 1372.68 334.683 1368.4 327.314C1366.26 323.639 1363.4 320.637 1360.07 318.566C1356.74 316.495 1353.04 315.414 1349.29 315.418C1341.91 316.092 1334.99 324.261 1335.99 333.143C1336.77 336.736 1337.76 340.26 1338.95 343.69C1339.52 345.421 1339.66 347.315 1339.33 349.136C1339.01 350.956 1338.24 352.621 1337.12 353.921C1335.72 354.748 1334.16 355.131 1332.6 355.033C1331.04 354.936 1329.53 354.362 1328.21 353.366C1318.53 347.421 1309.73 339.61 1302.18 330.248C1294.62 320.911 1286.16 312.672 1276.98 305.703C1267.58 299.24 1256.21 295.829 1245.9 299.517C1235.6 303.205 1227.05 315.378 1228.08 328.186C1229.11 340.994 1238.56 350.709 1247.76 357.609C1261.44 368.01 1276.31 375.984 1291.91 381.281C1294.79 381.857 1297.46 383.492 1299.52 385.96C1302.85 390.917 1299.99 398.411 1295.9 402.258C1291.28 406.62 1285.36 408.404 1280.08 411.576C1274.79 414.748 1269.74 420.141 1269.5 427.437C1269.24 437.271 1277.98 443.695 1285.73 447.066C1301.2 453.778 1317.53 457.279 1334 457.415C1339.88 456.873 1345.79 457.626 1351.45 459.636C1356.93 462.173 1361.75 468.676 1361.02 475.497C1360.29 482.317 1354.37 487.393 1348.56 488.344C1342.67 488.806 1336.77 488.673 1330.9 487.948C1319.9 487.749 1307.63 493.935 1304.31 506.585C1303.45 510.848 1303.43 515.291 1304.26 519.563C1305.08 523.836 1306.73 527.822 1309.06 531.209C1313.75 537.918 1319.53 543.422 1326.05 547.387C1348.07 562.857 1373.13 571.068 1398.69 571.179C1424.02 570.822 1445.62 564.359 1465.17 545.008" fill="#D4C7F8"/>
<path d="M1459.42 550.797C1451.84 531.368 1458.72 540.686 1444.69 517.806C1429.3 493.201 1412.73 469.674 1395.06 447.343L1381.23 429.698C1376.68 423.908 1372.19 418.159 1367.5 412.885C1358.46 402.74 1348.95 393.208 1339.01 384.335C1329.61 375.77 1320.4 368.037 1311.76 360.9C1303.11 353.762 1294.9 347.339 1287.26 341.827C1275.19 333.077 1262.56 325.479 1249.49 319.106C1244.87 316.845 1241.25 315.14 1238.79 314.189L1235.96 313.039C1235.66 312.869 1235.33 312.749 1235 312.682C1235.28 312.899 1235.58 313.073 1235.9 313.197L1238.69 314.506C1241.11 315.656 1244.7 317.361 1249.29 319.7C1262.18 326.3 1274.64 334.041 1286.56 342.858C1294.17 348.409 1302.28 354.754 1310.92 362.05C1319.57 369.346 1328.71 376.959 1338.08 385.524C1347.94 394.411 1357.38 403.928 1366.37 414.035C1371.03 419.308 1375.48 425.019 1380.04 430.808L1393.9 448.691C1411.54 470.972 1428.12 494.417 1443.56 518.917C1457.59 541.677 1450.71 532.2 1458.42 551.511" fill="white"/>
<path d="M1366.97 413.004C1366.96 411.669 1366.82 410.34 1366.57 409.038C1366.24 406.54 1365.68 402.972 1364.88 398.57C1363.35 389.767 1360.89 377.673 1358.23 364.35C1355.57 351.026 1353.14 338.932 1351.58 330.129C1350.88 325.728 1350.32 322.199 1349.95 319.661C1349.84 318.313 1349.6 316.984 1349.25 315.696C1349.13 317.013 1349.13 318.343 1349.25 319.661C1349.45 322.159 1349.85 325.807 1350.45 330.248C1351.65 339.13 1353.77 351.343 1356.57 364.667C1359.36 377.99 1361.82 389.648 1363.75 398.729L1365.84 409.078C1366.07 410.44 1366.45 411.76 1366.97 413.004V413.004Z" fill="white"/>
<path d="M1269.94 431.76C1271.22 431.524 1272.49 431.166 1273.73 430.689C1276.12 429.936 1279.58 428.826 1283.93 427.636C1292.54 425.138 1304.58 422.164 1317.97 419.705C1331.37 417.247 1343.6 415.502 1352.48 414.59C1356.9 414.075 1360.49 413.797 1362.98 413.559C1364.28 413.548 1365.57 413.388 1366.84 413.083C1365.55 412.94 1364.24 412.94 1362.95 413.083C1360.46 413.083 1356.83 413.083 1352.38 413.559C1343.47 414.194 1331.2 415.7 1317.77 418.238C1306.29 420.376 1294.9 423.221 1283.67 426.764C1279.38 428.112 1275.92 429.42 1273.69 430.372C1272.4 430.675 1271.14 431.14 1269.94 431.76Z" fill="white"/>
<path d="M1308.2 521.772C1308.66 521.853 1309.13 521.853 1309.59 521.772H1313.52L1327.94 521.216C1340.11 520.78 1356.97 520.344 1375.55 519.908C1394.13 519.472 1411.02 518.877 1423.18 518.123C1429.27 517.727 1434.19 517.37 1437.58 517.013L1441.5 516.617C1441.97 516.616 1442.43 516.522 1442.86 516.339C1442.4 516.281 1441.93 516.281 1441.47 516.339H1437.55L1423.12 516.894C1410.95 517.37 1394.13 517.767 1375.51 518.203C1356.9 518.639 1340.08 519.234 1327.88 520.027C1321.79 520.384 1316.87 520.78 1313.48 521.097L1309.56 521.534C1309.1 521.538 1308.64 521.618 1308.2 521.772V521.772Z" fill="white"/>
<path d="M469.077 345.195C467.575 340.054 467.846 334.645 467.124 329.392C466.734 326.582 465.817 323.478 463.278 321.905C461.596 320.865 459.447 320.683 457.615 319.882C451.019 317.072 450.539 307.773 444.454 304.107C442.465 303.09 440.323 302.36 438.099 301.944C429.521 299.795 420.928 295.763 416.436 288.613C414.934 286.295 413.957 283.668 412.019 281.688C410.081 279.707 406.686 278.499 404.237 279.932C405.544 283.626 406.821 287.307 408.098 290.959C409.029 294.352 410.657 297.544 412.89 300.356C415.324 303.053 419.26 304.809 422.836 303.812C423.961 303.287 425.218 303.059 426.471 303.152C427.346 303.446 428.073 304.031 428.515 304.795C432.511 310.414 429.701 318.309 424.278 322.719C418.855 327.13 411.643 328.774 404.673 330.333C402.247 331.077 399.652 331.193 397.161 330.67C392.729 329.265 391.017 324.293 390.325 319.938C388.823 310.316 388.823 300.104 383.986 291.493C382.408 288.782 380.32 286.211 379.584 283.191C378.818 279.932 379.659 276.35 378.081 273.358C376.504 270.366 372.343 267.978 372.568 264.494C372.763 262.064 375.227 260.28 377.751 259.507C380.275 258.735 382.964 258.805 385.548 258.201C386.555 257.948 387.726 257.442 387.907 256.487C388.132 255.083 386.089 254.17 385.743 252.751C385.398 251.332 387.246 249.941 388.192 248.537C390.22 245.362 387.005 241.513 383.565 239.575C380.125 237.636 375.948 236.119 374.761 232.551C374.387 230.88 374.246 229.171 374.341 227.466C374.145 223.252 371.486 218.715 367.099 217.408C362.713 216.102 357.094 219.192 357.169 223.491C357.259 225.851 358.822 227.901 359.483 230.163C360.144 232.425 359.408 235.571 356.944 235.936C352.902 236.512 350.213 229.404 346.623 231.231C347.284 235.655 347.915 240.052 348.591 244.505C343.137 246.233 337.729 241.035 336.332 235.782C334.935 230.528 335.716 224.909 333.868 219.81C332.02 214.711 325.62 210.188 320.678 212.969C319.506 219.066 327.784 222.718 330.848 228.182C333.057 232.144 331.75 237.903 327.303 239.631C322.856 241.359 317.072 236.526 319.265 232.607C320.047 231.202 321.519 230.205 321.909 228.674C322.345 226.764 320.858 224.98 319.461 223.533C317.297 221.229 315.134 218.967 312.971 216.706C311.663 215.149 310.033 213.854 308.178 212.899C303.311 210.834 297.662 213.995 294.297 217.872C290.931 221.749 288.663 226.567 284.396 229.615C278.252 234.054 268.081 233.001 263.905 226.904C259.728 220.808 263.905 211.045 271.552 210.048C274.451 209.696 277.981 210.244 279.814 208.137C283.029 204.387 276.464 198.164 279.649 194.371C282.083 191.463 287.025 193.612 290.946 193.051C294.868 192.489 297.467 189.258 300.141 186.533C302.815 183.808 306.646 181.321 310.342 182.726C310.151 180.577 310.625 178.421 311.709 176.517C313.001 174.719 315.99 173.862 317.643 175.351C315.314 177.978 316.937 182.375 320.002 184.201C323.066 186.027 326.927 186.266 330.608 186.378C334.289 186.491 338.991 185.83 339.817 182.487C340.088 181.405 339.817 180.169 340.433 179.2C342.642 175.393 349.733 182.01 353.293 179.2C355.321 177.795 353.834 174.494 351.445 173.581C349.057 172.668 346.442 173.174 343.934 172.907C341.425 172.64 338.555 171.025 338.811 168.693C339.066 166.361 342.071 165.097 342.717 162.863C343.783 159.071 336.948 157.118 334.003 159.927C331.059 162.737 331.269 167.148 331.404 171.067C331.539 174.986 331.254 179.495 327.829 181.827C326.326 183.484 323.051 182.066 322.24 179.987C321.429 177.908 322.015 175.604 322.24 173.399C322.465 171.193 321.744 168.552 319.551 167.667C318.048 167.035 316.231 167.527 314.578 167.513C308.058 167.372 304.798 159.085 307.712 153.578C310.627 148.072 316.967 145.15 323.051 143.043C327.558 141.455 332.937 140.163 336.692 142.874C338.45 144.138 339.517 146.035 341.199 147.327C344.204 149.547 348.275 149.448 351.986 150.01C357.86 150.961 363.201 153.786 367.099 158.003C368.602 159.632 369.729 162.217 368.181 163.622C366.634 165.027 362.427 165.027 362.803 167.26C363.843 167.686 364.967 167.901 366.103 167.893C367.238 167.885 368.359 167.654 369.392 167.214C370.425 166.774 371.348 166.135 372.1 165.34C372.851 164.544 373.415 163.609 373.755 162.596C374.75 163.198 375.558 164.034 376.099 165.021C376.639 166.007 376.893 167.108 376.835 168.215C378.207 167.33 379.761 166.722 381.399 166.429C383.036 166.137 384.721 166.165 386.346 166.514C387.971 166.863 389.5 167.524 390.837 168.455C392.174 169.387 393.289 170.568 394.111 171.924C394.722 173.497 395.616 174.96 396.755 176.25C398.092 177.346 400.737 177.248 401.172 175.646C401.299 175.133 401.299 174.6 401.172 174.087C400.646 171.629 400.091 169.199 399.565 166.768C403.245 165.518 406.881 168.749 408.759 171.952C415.7 183.892 422.866 178.259 434.734 181.658C442.772 183.934 445.611 189.342 449.337 195.93C460.709 216.172 477.175 233.731 487.135 254.619C488.137 256.801 489.088 259.002 489.99 261.221C489.855 260.673 489.749 260.14 489.599 259.592C486.48 246.48 482.043 233.673 476.349 221.341C475.132 218.715 473.885 216.13 472.593 213.559C471.782 211.972 470.94 210.357 470.084 208.797C469.017 206.746 467.86 204.766 466.704 202.785C465.772 201.184 464.856 199.611 463.894 198.079C463.233 196.998 462.527 195.93 461.836 194.849C461.145 193.767 460.334 192.432 459.463 191.224L456.894 187.46C456.638 187.081 456.368 186.687 456.052 186.294C455.166 184.987 454.204 183.695 453.228 182.403C453.178 182.251 453.085 182.115 452.957 182.01C452.697 181.663 452.427 181.312 452.146 180.956C451.365 179.86 450.524 178.793 449.712 177.739C448.36 176.011 446.978 174.284 445.536 172.612C444.379 171.207 443.162 169.803 441.915 168.398C440.668 166.993 439.737 165.926 438.61 164.717C437.483 163.509 436.417 162.344 435.275 161.178C433.923 159.773 432.526 158.298 431.099 156.879C427.162 152.932 423.046 149.139 418.795 145.543C417.743 144.63 416.706 143.745 415.64 142.874C414.573 142.003 413.476 141.09 412.395 140.247C411.313 139.405 410.216 138.52 409.105 137.691C407.993 136.862 406.896 135.991 405.784 135.176C404.673 134.362 403.997 133.772 403.065 133.224C402.626 132.866 402.164 132.533 401.683 132.227C399.76 130.822 397.792 129.417 395.809 128.195C394.817 127.535 393.826 126.875 392.804 126.242C391.542 125.4 390.235 124.599 388.928 123.826C388.745 123.689 388.549 123.566 388.342 123.461C387.171 122.745 386.014 122.056 384.797 121.326C383.099 120.357 381.417 119.402 379.719 118.517C377.781 117.449 375.828 116.381 373.845 115.37C371.862 114.359 369.458 113.122 367.22 112.083C364.981 111.044 362.713 109.962 360.399 108.95C358.085 107.939 355.817 106.998 353.488 106.043C348.891 104.189 344.189 102.461 339.442 100.873L339.186 100.775C337.368 100.171 335.536 99.5811 333.703 99.0473C333.59 98.9891 333.468 98.9465 333.342 98.9208C332.561 98.682 331.735 98.4292 330.893 98.2044C327.483 97.179 324.028 96.2659 320.512 95.395C320.107 95.2686 319.671 95.1843 319.235 95.086C318.229 94.805 317.207 94.5943 316.231 94.3555C313.902 93.8217 311.573 93.3301 309.2 92.8806C306.826 92.4311 304.272 91.9254 301.778 91.4759C299.284 91.0264 296.58 90.6331 293.966 90.2819C287.035 89.3454 280.14 88.7039 273.279 88.3574C271.642 88.245 270.034 88.1748 268.427 88.1327C266.819 88.0905 265.061 88.0203 263.379 88.0062C261.696 87.9922 259.999 88.0062 258.331 88.0062C256.663 88.0062 254.981 88.0062 253.283 88.0905C251.856 88.0905 250.384 88.1608 248.941 88.245C245.376 88.3949 241.845 88.6196 238.35 88.9193C236.713 89.0457 235.06 89.2143 233.422 89.411C231.785 89.6076 230.132 89.7762 228.525 89.9869C225.791 90.324 223.147 90.7314 220.487 91.1528L213.997 92.2766C213.948 92.2653 213.896 92.2653 213.847 92.2766C211.639 92.6839 209.505 93.1334 207.312 93.6813H206.966C204.983 94.1167 203 94.5803 201.047 95.086C198.583 95.6619 196.15 96.3221 193.761 96.9823C191.718 97.5442 189.705 98.1202 187.752 98.7382C185.799 99.3563 183.485 100.059 181.382 100.761H181.141C179.128 101.435 177.1 102.166 175.132 102.896C173.164 103.627 171.031 104.413 168.973 105.256C167.05 106.015 165.157 106.773 163.279 107.574C162.558 107.869 161.867 108.192 161.13 108.515C159.117 109.372 157.179 110.271 155.121 111.198C152.687 112.308 150.329 113.502 147.955 114.696C145.882 115.749 143.839 116.845 141.826 117.941C130.206 124.287 119.193 131.557 108.91 139.672C105.274 142.481 101.819 145.403 98.3933 148.381C95.5239 150.951 92.7145 153.55 89.9953 156.275C87.5615 158.635 85.1878 161.065 82.8893 163.538C85.1878 161.065 87.5615 158.635 89.9953 156.275C90.5962 156.275 91.1972 156.275 91.7831 156.345C95.1333 156.556 98.6186 157.132 101.804 156.191C104.808 155.292 107.077 153.241 109.841 151.977C116.902 148.577 127.523 149.167 130.363 142.27C131.324 139.938 131.024 137.227 132.346 135.05C134.81 130.99 141.059 131.201 145.987 131.946C148.075 132.227 150.494 132.831 151.2 134.755C151.363 135.434 151.372 136.137 151.228 136.819C151.083 137.501 150.787 138.147 150.359 138.716C146.028 146.399 138.998 152.451 130.453 155.854C123.482 158.663 114.679 160.335 111.869 166.909C112.395 169.339 116.902 169.718 116.902 172.233C116.902 174.199 114.063 174.831 112.831 176.447C111.043 178.779 113.777 182.276 116.857 182.557C119.937 182.838 122.791 181.153 125.33 179.481C132.932 174.565 140.939 169.255 144.65 161.318C146.152 158.045 147.189 154.098 150.494 152.23C151.496 151.754 152.602 151.502 153.726 151.493C154.849 151.484 155.96 151.719 156.97 152.179C157.98 152.639 158.862 153.312 159.548 154.145C160.233 154.977 160.703 155.947 160.92 156.978C164.06 155.854 168.777 155.334 169.844 158.382C170.02 159.479 170.06 160.592 169.964 161.697C170.25 166.235 176.379 169.1 176.364 173.637C176.364 178.863 168.852 180.563 163.279 180.661C158.201 180.661 153.123 180.759 148.03 180.844C145.815 180.695 143.594 181.047 141.555 181.869C140.547 182.314 139.732 183.068 139.245 184.006C138.759 184.943 138.63 186.009 138.881 187.024C139.482 188.044 140.219 188.988 141.074 189.834C144.605 194.245 139.978 201.732 134.134 201.071C132.136 200.861 130.288 199.92 128.32 199.568C122.461 198.543 117.037 202.757 113.477 207.238C109.916 211.719 106.972 216.973 101.743 219.642C93.3455 223.954 80.4555 220.948 75.5129 228.646C73.5298 231.75 73.7251 235.571 73.7551 239.195C73.7852 242.819 73.4547 246.753 70.7505 249.379C68.0463 252.006 62.3675 251.824 61.2408 248.368C60.9171 246.82 61.0895 245.217 61.7365 243.761C63.4091 238.788 65.0567 233.811 66.6792 228.829C67.8811 225.12 69.0979 220.962 67.175 217.591C64.5008 212.801 56.9291 212.197 52.0465 215.09C47.164 217.984 44.5349 223.182 42.5218 228.21C41.0194 231.947 39.1716 237.257 36.212 241.344C34.7097 245.559 33.4778 249.773 32.321 254.071C31.1642 258.37 30.1276 262.879 29.2412 267.402C29.9866 266.981 30.6995 266.512 31.3745 265.997C34.0487 264.073 40.1932 255.237 43.6635 260.449C44.0901 261.127 44.264 261.918 44.158 262.698C44.052 263.479 43.672 264.204 43.0776 264.761C41.5753 266.166 38.9162 266.166 37.6542 267.683C36.1519 269.523 37.4439 272.22 39.2317 273.807C41.0194 275.395 43.318 276.617 44.4297 278.654C46.548 282.629 43.1227 287.756 45.1659 291.802C46.9236 295.271 51.686 296.128 55.6821 297.083L57.0493 297.491C59.3629 290.06 64.1102 284.413 75.5129 283.57C91.2572 282.39 109.465 296.915 116.376 308.855C124.098 322.172 125.991 339.759 139.722 347.793C149.548 353.525 164.706 353.988 168.342 364.285C171.572 373.514 162.122 382.111 159.433 391.48C157.69 397.689 158.922 404.249 158.456 410.612C157.991 416.976 154.836 424.111 148.271 425.938C144.62 426.921 140.338 426.162 137.213 428.199C131.64 431.879 134.209 441.375 128.695 445.056C126.742 446.334 124.263 446.559 122.01 447.275C110.187 450.984 108.143 466.168 111.629 477.364L112.019 478.544C144.974 503.59 184.571 519.818 226.602 525.503C264.668 530.704 303.518 527.047 339.712 514.856V514.856C359.067 508.308 377.429 499.435 394.337 488.461C401.415 483.874 408.207 478.912 414.678 473.599C419.185 469.933 423.587 466.056 427.808 462.067C429.972 460.002 432.105 457.923 434.118 455.774C449.261 440.317 461.913 422.879 471.676 404.01C477.634 392.485 482.471 380.483 486.129 368.148C487.631 363.344 488.908 358.469 490.035 353.525C487.223 355.597 483.646 356.542 480.089 356.151C474.501 355.309 470.58 350.308 469.077 345.195Z" fill="#CEC0F9"/>
<path d="M397.011 371.645C407.347 365.451 413.657 349.17 402.84 343.734C398.754 341.683 393.601 342.203 389.545 340.068C384.272 337.258 382.574 331.063 381.372 325.515C378.217 310.953 375.057 296.386 371.892 281.814C369.984 273.035 366.634 262.71 357.44 260.21C352.227 258.805 346.698 260.463 341.29 260.659C322.616 261.291 298.399 216.004 280.28 241.822C279.514 234.04 265.978 235.094 260.75 241.218C255.522 247.343 253.239 256.08 245.937 259.816C240.334 262.626 232.897 261.881 228.06 265.8C224.679 268.61 223.553 272.922 222.486 277.038C220.563 284.858 218.635 292.682 216.702 300.511C215.2 306.818 213.622 313.575 216.146 319.601C218.67 325.627 227.023 329.926 232.747 326.287C235.376 324.616 236.833 321.75 239.087 319.657C240.948 317.989 243.287 316.861 245.82 316.41C248.353 315.959 250.972 316.203 253.359 317.115C257.325 318.688 260.179 321.989 262.643 325.318C282.624 352.345 285.854 387.434 281.873 420.08C281.137 426.064 280.205 432.174 281.693 438.032C283.435 444.887 288.408 450.913 289.054 457.937C289.55 463.331 287.432 468.908 289.054 474.091C292.059 483.657 306.736 486.031 315.75 480.693C324.764 475.355 329.136 465.368 332.276 455.83C335.416 446.292 338.06 436.164 345.166 428.733C349.568 424.125 355.532 420.768 358.942 415.472C363.705 408.056 362.518 398.349 367.04 390.806C373.064 380.79 386.675 377.826 397.011 371.645Z" fill="url(#paint0_linear)"/>
<path d="M168.176 364.074C164.54 353.778 149.382 353.314 139.557 347.583C125.825 339.576 123.933 321.961 116.211 308.644C109.3 296.747 91.0917 282.222 75.3473 283.36C63.9447 284.203 59.1973 289.849 56.8837 297.28L55.5166 296.873C51.4904 295.918 46.728 295.061 45.0003 291.591C42.9572 287.546 46.3825 282.419 44.2642 278.443C43.1525 276.364 40.8539 275.212 39.0661 273.597C37.2784 271.982 35.9713 269.313 37.4887 267.472C38.7506 265.927 41.3797 265.927 42.9121 264.551C43.5064 263.994 43.8864 263.268 43.9925 262.488C44.0985 261.707 43.9246 260.916 43.498 260.238C40.0276 255.027 33.8831 263.862 31.224 265.787C30.5414 266.298 29.8237 266.767 29.0757 267.191V267.191C28.9675 267.585 28.8823 267.983 28.8203 268.385C28.5649 269.664 28.3696 270.984 28.1292 272.305C27.8888 273.625 27.6635 274.903 27.4531 276.21C27.2879 277.277 27.1677 278.345 27.0175 279.412C26.8672 280.48 26.702 281.548 26.5818 282.601C26.5067 283.121 26.4316 283.598 26.3865 284.118C23.6146 307.849 25.005 331.843 30.5029 355.154C32.9568 365.516 36.236 375.691 40.3131 385.595C41.9806 389.809 43.8886 394.023 45.9017 398.237C48.4106 403.392 51.0847 408.463 54.0443 413.394C56.7786 418.128 59.7382 422.777 62.9231 427.286C67.2434 433.548 71.9069 439.596 76.8947 445.407C81.3316 450.576 86.0139 455.544 90.9415 460.311C83.6552 428.817 77.1051 396.818 61.8715 368.162C77.1051 396.818 83.6552 428.817 90.9415 460.311C93.0297 462.39 95.163 464.371 97.3414 466.309C99.054 467.864 100.792 469.39 102.554 470.889C104.327 472.392 106.115 473.867 107.948 475.313C109.21 476.325 110.487 477.308 111.809 478.291L111.418 477.111C107.933 465.874 109.916 450.731 121.799 447.022C124.053 446.306 126.532 446.081 128.485 444.803C134.058 441.123 131.489 431.627 137.003 427.947C140.128 425.91 144.409 426.668 148.06 425.685C154.625 423.859 157.75 416.765 158.246 410.36C158.741 403.954 157.48 397.436 159.222 391.227C161.956 381.9 171.436 373.303 168.176 364.074ZM51.4453 304.936C52.6772 305.231 53.9241 305.498 55.1711 305.723C53.9241 305.47 52.7523 305.203 51.4453 304.936ZM54.7504 309.052C54.3598 312.395 53.9993 315.808 53.4434 319.067C53.3382 319.671 53.203 320.275 53.0528 320.894C53.203 320.275 53.3382 319.671 53.4434 319.067C53.9993 315.78 54.3598 312.367 54.7504 309.024V309.052ZM35.3103 288.585C38.4952 291.156 41.3196 294.204 41.4849 297.969C41.3797 294.232 38.4952 291.128 35.3103 288.557V288.585ZM41.575 301.228C41.2789 300.466 41.237 299.638 41.4548 298.854C41.237 299.638 41.2789 300.466 41.575 301.228C41.9112 301.728 42.412 302.112 43.0022 302.323C42.412 302.112 41.9112 301.728 41.575 301.228V301.228ZM50.3486 330.08C49.5791 332.523 49.1104 335.04 48.9514 337.581C48.9393 341.867 49.9074 346.106 51.7908 350.013C49.9074 346.106 48.9393 341.867 48.9514 337.581C49.1104 335.04 49.5791 332.523 50.3486 330.08V330.08ZM52.2265 350.94C52.6321 351.811 53.0678 352.682 53.5185 353.539C53.0678 352.696 52.6321 351.811 52.2265 350.94V350.94Z" fill="url(#paint1_linear)"/>
<path d="M51.851 214.908C56.7335 212.014 64.3053 212.618 66.9794 217.408C68.9024 220.836 67.6855 224.993 66.4836 228.646C64.8511 233.618 63.2036 238.596 61.541 243.578C60.894 245.034 60.7215 246.637 61.0452 248.185C62.172 251.641 67.9409 251.795 70.555 249.197C73.169 246.598 73.5596 242.609 73.5596 239.012C73.5596 235.416 73.3343 231.568 75.3173 228.463C80.26 220.765 93.15 223.771 101.548 219.459C106.776 216.79 109.736 211.536 113.281 207.055C116.827 202.574 122.295 198.36 128.124 199.386C130.092 199.737 131.94 200.678 133.938 200.889C139.782 201.493 144.454 194.006 140.879 189.651C140.023 188.805 139.286 187.861 138.685 186.842C138.435 185.826 138.563 184.761 139.05 183.823C139.536 182.885 140.351 182.131 141.36 181.686C143.399 180.864 145.62 180.512 147.835 180.661C152.928 180.577 158.005 180.534 163.083 180.478C168.702 180.478 176.138 178.722 176.169 173.455C176.169 168.917 170.054 166.052 169.769 161.515C169.864 160.409 169.824 159.297 169.648 158.199C168.582 155.165 163.864 155.685 160.725 156.795C160.507 155.764 160.038 154.794 159.352 153.962C158.667 153.129 157.784 152.457 156.774 151.997C155.764 151.536 154.654 151.302 153.53 151.31C152.406 151.319 151.3 151.571 150.298 152.047C146.993 153.915 146.017 157.862 144.454 161.135C140.744 169.072 132.736 174.382 125.134 179.298C122.596 180.928 119.741 182.641 116.661 182.375C113.582 182.108 110.847 178.596 112.635 176.264C113.867 174.677 116.661 174.045 116.706 172.05C116.706 169.592 112.199 169.156 111.674 166.726C114.483 160.152 123.287 158.452 130.257 155.671C138.802 152.268 145.832 146.216 150.163 138.534C150.591 137.965 150.887 137.318 151.032 136.636C151.177 135.954 151.168 135.251 151.005 134.572C150.313 132.718 147.88 132.114 145.791 131.763C140.864 131.018 134.614 130.808 132.15 134.867C130.828 137.045 131.129 139.756 130.167 142.087C127.328 149.013 116.646 148.395 109.645 151.794C106.881 153.1 104.568 155.151 101.608 156.008C98.4231 156.949 94.9377 156.373 91.5875 156.163C91.0016 156.163 90.4007 156.163 89.7998 156.092C87.366 158.452 84.9923 160.882 82.6937 163.355C80.3952 165.827 78.1868 168.356 75.9633 170.926C65.5828 183.104 56.6326 196.291 49.267 210.258C46.6629 215.165 44.2642 220.18 42.0708 225.302C39.8774 230.425 37.8743 235.651 36.0615 240.979C39.0662 236.891 40.899 231.582 42.3713 227.845C44.3544 222.999 46.9985 217.843 51.851 214.908Z" fill="url(#paint2_linear)"/>
<path d="M493.129 336.204C493.6 333.067 493.981 329.944 494.271 326.835C494.562 323.726 494.782 320.617 494.932 317.508C495.067 314.993 495.142 312.507 495.157 310.007C495.173 307.506 495.157 304.753 495.157 302.14C494.974 294.335 494.327 286.546 493.22 278.808C492.799 275.858 492.303 272.908 491.717 269.986C491.131 267.065 490.56 264.157 489.884 261.249C489.023 259.03 488.072 256.829 487.03 254.647C477.07 233.759 460.604 216.2 449.231 195.958C445.506 189.37 442.666 183.962 434.629 181.686C422.76 178.287 415.594 183.92 408.654 171.98C406.776 168.777 403.14 165.546 399.459 166.796C399.985 169.226 400.541 171.657 401.067 174.115C401.194 174.628 401.194 175.161 401.067 175.674C400.631 177.275 397.987 177.374 396.65 176.278C395.511 174.988 394.616 173.524 394.006 171.952C393.183 170.596 392.068 169.415 390.732 168.483C389.395 167.552 387.865 166.891 386.24 166.542C384.616 166.193 382.931 166.165 381.293 166.457C379.656 166.75 378.102 167.358 376.729 168.243C376.788 167.136 376.534 166.035 375.993 165.048C375.453 164.062 374.644 163.226 373.649 162.624C373.31 163.637 372.746 164.572 371.994 165.368C371.242 166.163 370.32 166.802 369.287 167.242C368.253 167.682 367.133 167.913 365.997 167.921C364.862 167.929 363.738 167.713 362.697 167.288C362.322 165.097 366.393 165.251 368.076 163.65C369.758 162.048 368.436 159.59 366.994 158.031C363.095 153.814 357.755 150.989 351.881 150.038C348.17 149.476 344.053 149.575 341.094 147.355C339.381 146.063 338.315 144.166 336.587 142.902C332.831 140.191 327.408 141.497 322.946 143.071C316.861 145.234 310.477 148.128 307.607 153.606C304.738 159.084 307.953 167.4 314.473 167.541C316.125 167.541 317.928 167.063 319.445 167.695C321.639 168.58 322.285 171.207 322.135 173.427C321.984 175.646 321.353 177.936 322.135 180.015C322.916 182.094 326.146 183.512 327.723 181.855C331.149 179.579 331.479 175.028 331.299 171.095C331.118 167.162 330.968 162.751 333.898 159.955C336.827 157.16 343.678 159.098 342.611 162.891C341.965 165.125 338.946 166.403 338.705 168.721C338.465 171.039 341.319 172.724 343.828 172.935C346.337 173.146 349.026 172.696 351.34 173.609C353.653 174.522 355.216 177.823 353.188 179.228C349.627 182.037 342.536 175.435 340.328 179.228C339.727 180.197 339.982 181.433 339.712 182.515C338.886 185.858 334.168 186.476 330.503 186.406C326.837 186.336 322.991 186.125 319.896 184.229C316.801 182.332 315.209 178.006 317.537 175.379C315.885 173.89 312.895 174.747 311.603 176.545C310.52 178.449 310.045 180.604 310.236 182.754C306.525 181.447 302.634 184.004 299.99 186.715C297.346 189.426 294.672 192.671 290.796 193.233C286.92 193.795 281.932 191.646 279.498 194.553C276.314 198.346 282.879 204.569 279.664 208.32C277.831 210.427 274.3 209.879 271.401 210.23C263.694 211.185 259.548 220.962 263.754 227.086C267.961 233.211 278.101 234.236 284.246 229.798C288.512 226.749 290.796 221.959 294.146 218.054C297.496 214.149 303.16 211.031 308.028 213.082C309.883 214.036 311.513 215.331 312.82 216.888C314.983 219.15 317.147 221.411 319.31 223.715C320.707 225.12 322.195 226.946 321.759 228.856C321.368 230.388 319.896 231.413 319.115 232.79C316.921 236.751 322.75 241.569 327.152 239.813C331.554 238.057 332.906 232.326 330.698 228.365C327.693 222.9 319.355 219.248 320.527 213.152C325.47 210.342 331.885 214.851 333.717 219.993C335.55 225.134 334.769 230.753 336.181 235.964C337.593 241.176 342.987 246.415 348.44 244.688C347.764 240.235 347.133 235.838 346.472 231.413C350.063 229.587 352.752 236.695 356.793 236.119C359.257 235.754 360.038 232.621 359.332 230.345C358.626 228.07 357.109 226.033 357.019 223.673C356.943 219.375 362.532 216.298 366.949 217.591C371.366 218.883 373.995 223.364 374.19 227.648C374.095 229.353 374.237 231.062 374.611 232.733C375.798 236.259 380.019 237.847 383.414 239.757C386.81 241.667 390.07 245.544 388.042 248.719C387.11 250.124 385.247 251.29 385.593 252.933C385.938 254.577 387.982 255.223 387.756 256.67C387.576 257.625 386.404 258.074 385.398 258.383C382.814 258.987 380.124 258.931 377.6 259.69C375.077 260.448 372.613 262.246 372.417 264.677C372.192 268.16 376.308 270.408 377.931 273.54C379.553 276.673 378.652 280.114 379.433 283.373C380.169 286.393 382.258 288.992 383.835 291.675C388.733 300.286 388.628 310.498 390.175 320.121C390.866 324.475 392.579 329.448 397.01 330.853C399.501 331.376 402.097 331.259 404.522 330.515C411.493 328.956 418.749 327.271 424.128 322.902C429.506 318.533 432.36 310.54 428.364 304.978C427.923 304.213 427.195 303.628 426.321 303.334C425.067 303.242 423.811 303.47 422.685 303.994C419.11 304.992 415.174 303.236 412.74 300.539C410.506 297.726 408.879 294.535 407.947 291.141C406.67 287.489 405.393 283.809 404.086 280.114C406.535 278.71 409.885 279.876 411.869 281.87C413.852 283.865 414.798 286.478 416.285 288.795C420.792 295.945 429.371 300.033 437.949 302.126C440.172 302.543 442.315 303.272 444.304 304.289C450.313 307.956 450.869 317.199 457.464 320.064C459.297 320.865 461.445 321.048 463.128 322.087C465.667 323.66 466.583 326.737 466.974 329.574C467.695 334.828 467.38 340.236 468.927 345.377C470.474 350.518 474.35 355.491 479.939 356.32C483.495 356.71 487.072 355.766 489.884 353.693C490.906 348.987 491.837 344.253 492.574 339.435C492.934 338.213 493.054 337.244 493.129 336.204Z" fill="url(#paint3_linear)"/>
<path d="M385.503 413.941C381.943 414.11 380.996 415.922 378.698 418.057C375.693 420.867 371.757 423.507 369.053 426.289C364.456 431.009 366.604 439.634 360.94 443.356C359.701 443.975 358.497 444.655 357.335 445.393C356.248 446.428 355.64 447.82 355.64 449.27C355.64 450.72 356.248 452.112 357.335 453.147C358.483 454.126 359.911 454.771 361.444 455.006C362.978 455.24 364.551 455.053 365.973 454.467C368.817 453.24 371.083 451.081 372.343 448.399C373.304 446.517 374.025 444.339 375.888 443.202C379.103 441.249 383.265 443.581 387.096 443.595C403.381 443.665 401.097 413.197 385.503 413.941Z" fill="url(#paint4_linear)"/>
</g>
<defs>
<linearGradient id="paint0_linear" x1="311.647" y1="233.86" x2="311.647" y2="483.486" gradientUnits="userSpaceOnUse">
<stop stop-color="#F18686"/>
<stop offset="1" stop-color="#AD99FF"/>
</linearGradient>
<linearGradient id="paint1_linear" x1="96.925" y1="258.615" x2="96.925" y2="478.291" gradientUnits="userSpaceOnUse">
<stop stop-color="#F18686"/>
<stop offset="1" stop-color="#AD99FF"/>
</linearGradient>
<linearGradient id="paint2_linear" x1="106.115" y1="131.334" x2="106.115" y2="250.982" gradientUnits="userSpaceOnUse">
<stop stop-color="#F18686"/>
<stop offset="1" stop-color="#AD99FF"/>
</linearGradient>
<linearGradient id="paint3_linear" x1="378.622" y1="141.334" x2="378.622" y2="356.406" gradientUnits="userSpaceOnUse">
<stop stop-color="#F18686"/>
<stop offset="1" stop-color="#AD99FF"/>
</linearGradient>
<linearGradient id="paint4_linear" x1="376.969" y1="413.928" x2="376.969" y2="455.104" gradientUnits="userSpaceOnUse">
<stop stop-color="#F18686"/>
<stop offset="1" stop-color="#AD99FF"/>
</linearGradient>
<clipPath id="clip0">
<rect width="1441" height="551" fill="white"/>
</clipPath>
</defs>
</svg>
