<svg width="1440" height="505" viewBox="0 0 1440 505" fill="none" xmlns="http://www.w3.org/2000/svg">
<path d="M684.945 465C1101.89 465 1439.89 447.315 1439.89 425.5C1439.89 403.685 1101.89 386 684.945 386C268 386 -70 403.685 -70 425.5C-70 447.315 268 465 684.945 465Z" fill="#D7A9ED" fill-opacity="0.9"/>
<path d="M115.391 376.028C115.235 377.547 115.765 380.586 119.129 380.586" stroke="black"/>
<path d="M-5.00038 223.928C-5.00038 223.928 27.7683 215.778 29.4768 153.225C31.2878 85.7256 21.4469 6.942 60.2295 0.568251C99.012 -5.8055 120.539 42.3633 120.061 98.6125C119.616 147.861 100.14 254.787 -4.86372 275.754L-5.00038 223.928Z" fill="#D4C7F8"/>
<path opacity="0.2" d="M-5.00038 223.928C-5.00038 223.928 27.7683 215.778 29.4768 153.225C31.2878 85.7256 21.4469 6.942 60.2295 0.568251C99.012 -5.8055 120.539 42.3633 120.061 98.6125C119.616 147.861 100.14 254.787 -4.86372 275.754L-5.00038 223.928Z" fill="black"/>
<path d="M-3.29266 270.056H-2.98522C20.6204 265.64 39.8534 252.288 54.1671 230.418C96.5957 165.477 83.2385 44.2147 78.8316 23.0465C78.7331 22.5955 78.4681 22.2012 78.0923 21.9464C77.7165 21.6915 77.2591 21.596 76.8161 21.6796C76.3739 21.7885 75.9892 22.0673 75.7413 22.4585C75.4935 22.8498 75.4013 23.3236 75.4838 23.7824C79.8223 44.8105 93.1112 164.53 51.3316 228.456C45.2502 238.369 37.2268 246.878 27.7705 253.442C18.3143 260.006 7.63156 264.482 -3.6001 266.587C-3.82301 266.629 -4.03557 266.716 -4.22535 266.843C-4.41514 266.97 -4.57836 267.134 -4.70554 267.327C-4.83272 267.519 -4.92131 267.736 -4.96612 267.964C-5.01093 268.192 -5.01111 268.426 -4.96659 268.654C-4.894 269.053 -4.68606 269.413 -4.37965 269.67C-4.07324 269.926 -3.68814 270.063 -3.29266 270.056V270.056Z" fill="white"/>
<path d="M-3.11915 430.64C30.797 435.305 85.8635 435.236 117.658 409.75C149.452 384.264 142.813 362.33 130.595 353.173C118.376 344.017 107.767 333.572 128.781 313.239C149.794 292.906 183.539 260.248 194.491 211.261C205.443 162.275 200.035 131.636 178.542 121.435C157.7 111.547 152.19 127.284 139.424 159.733C126.659 192.182 97.9447 164.364 73.3718 174.495C48.7989 184.627 49.7913 204.681 48.2512 221.915C46.7111 239.149 38.6 243.919 24.6708 243.919C10.7416 243.919 -3.11915 252.066 -3.11915 268.291V430.64Z" fill="#D4C7F8"/>
<path d="M-3.27988 372.585C-3.13257 372.618 -2.97988 372.618 -2.83257 372.585C-1.35308 372.169 33.9139 361.83 85.2833 314.265C139.99 263.612 165.795 187.633 166.071 186.87C166.202 186.433 166.161 185.961 165.956 185.554C165.751 185.146 165.397 184.835 164.969 184.684C164.54 184.54 164.073 184.572 163.667 184.774C163.261 184.975 162.951 185.329 162.802 185.76C162.561 186.523 136.997 261.669 82.9436 311.698C32.2968 358.638 -3.38309 369.15 -3.76157 369.254C-3.97845 369.318 -4.18076 369.424 -4.35693 369.567C-4.53309 369.71 -4.67964 369.886 -4.78827 370.086C-4.8969 370.285 -4.96548 370.505 -4.99003 370.731C-5.01459 370.958 -4.99465 371.187 -4.93139 371.405C-4.81981 371.756 -4.5985 372.06 -4.3007 372.273C-4.00289 372.486 -3.64468 372.595 -3.27988 372.585Z" fill="white"/>
<path d="M69.9757 327.03C70.3206 327.036 70.6584 326.931 70.9415 326.731C71.2246 326.531 71.4387 326.245 71.5536 325.915C82.565 297.193 85.0692 235.741 85.275 233.127C85.2846 232.667 85.1185 232.221 84.8114 231.883C84.5044 231.545 84.0804 231.341 83.6284 231.314C83.1805 231.321 82.7507 231.495 82.4215 231.804C82.0923 232.113 81.8869 232.534 81.8447 232.987C81.8447 233.615 79.2719 296.461 68.4664 324.66C68.3837 324.875 68.3439 325.105 68.3493 325.335C68.3546 325.566 68.4051 325.793 68.4977 326.004C68.5902 326.215 68.723 326.405 68.8884 326.563C69.0538 326.721 69.2485 326.845 69.4611 326.926C69.6266 326.986 69.8001 327.021 69.9757 327.03V327.03Z" fill="white"/>
<path d="M70.5521 368.049C73.7066 368.073 76.86 367.922 79.9959 367.599C80.2205 367.574 80.4377 367.507 80.6349 367.403C80.8322 367.299 81.0057 367.159 81.1455 366.992C81.2853 366.825 81.3886 366.634 81.4497 366.429C81.5108 366.224 81.5284 366.01 81.5014 365.799C81.4744 365.588 81.4035 365.384 81.2926 365.199C81.1817 365.013 81.0331 364.85 80.8551 364.719C80.6772 364.588 80.4735 364.491 80.2556 364.433C80.0377 364.376 79.8099 364.359 79.5852 364.385C79.2773 364.385 47.4217 367.792 32.8113 353.809C32.6592 353.639 32.4715 353.502 32.26 353.404C32.0485 353.306 31.8177 353.25 31.5822 353.24C31.3467 353.23 31.1115 353.266 30.8915 353.345C30.6714 353.425 30.4711 353.546 30.3032 353.701C30.1353 353.857 30.0035 354.043 29.9159 354.249C29.8283 354.454 29.787 354.675 29.7944 354.896C29.8017 355.118 29.8578 355.335 29.9589 355.535C30.06 355.735 30.204 355.914 30.3819 356.059C40.9548 366.313 59.3975 368.049 70.5521 368.049Z" fill="white"/>
<path d="M1247.57 401.192C1290.25 379.699 1306.68 329.64 1312.06 283.234C1312.95 275.419 1315 267.603 1312.44 260.178C1309.87 252.753 1302.27 246.911 1295.06 249.1C1289.09 250.917 1285.67 257.189 1281.76 262.191C1276.49 268.876 1269.5 273.901 1261.59 276.689C1256.43 278.467 1250.29 279.092 1245.98 275.673C1240.05 270.983 1240.67 261.683 1241.85 254.023L1248.53 211.213C1249.72 203.554 1250.92 195.738 1249.68 188.098C1248.45 180.459 1244.34 172.897 1237.56 169.732C1230.77 166.566 1221.36 169.38 1218.75 176.648C1217.65 179.658 1217.79 182.999 1217.1 186.144C1216.42 189.29 1214.46 192.592 1211.4 193.022C1208.34 193.452 1205.69 190.795 1203.79 188.196C1197.25 179.247 1193.53 168.462 1190.12 157.774C1186.72 147.086 1183.51 136.183 1177.79 126.648C1172.06 117.113 1163.42 108.887 1152.83 106.562C1142.24 104.236 1129.84 109.238 1125.53 119.575C1121.21 129.911 1125.6 141.888 1131 151.775C1138.95 166.315 1148.91 179.595 1160.56 191.205C1162.65 193.296 1164.94 195.543 1165.41 198.532C1166.27 203.886 1160.79 208.302 1155.64 209.122C1149.78 210.158 1143.85 208.614 1137.92 208.38C1131.99 208.146 1125.32 209.806 1122.28 215.121C1118.04 222.468 1123.19 231.69 1128.66 238.06C1139.63 250.789 1152.64 261.489 1167.12 269.694C1172.31 272.605 1177.81 275.341 1181.65 279.991C1185.49 284.641 1187.1 291.968 1183.55 296.951C1179.99 301.933 1172.96 302.578 1167.37 300.566C1161.78 298.553 1157.12 294.548 1151.97 291.558C1142.31 285.95 1128.97 284.583 1121.04 292.652C1115.83 297.967 1114.22 306.232 1115.34 313.715C1116.46 321.199 1119.96 328.018 1123.82 334.427C1137.28 356.838 1155.91 376.104 1178.41 388.335C1200.92 400.567 1222.61 406.35 1247.56 401.192" fill="#BCA3F0"/>
<path d="M1240.31 370.418C1236.62 344.083 1231.46 317.988 1224.86 292.261C1223.15 285.41 1221.45 278.649 1219.78 271.98C1218.11 265.336 1216.44 258.752 1214.42 252.441C1210.52 240.268 1205.97 228.324 1200.79 216.665C1195.92 205.508 1190.9 195.171 1186.15 185.402C1181.4 175.632 1176.74 166.762 1172.18 158.79C1165.06 146.171 1156.97 134.156 1148 122.857C1144.84 118.949 1142.29 115.843 1140.53 113.83L1138.51 111.544C1138.3 111.271 1138.05 111.023 1137.79 110.802C1137.97 111.095 1138.18 111.376 1138.4 111.642L1140.3 114.026C1141.97 116.097 1144.46 119.164 1147.56 123.228C1156.35 134.628 1164.29 146.692 1171.32 159.317C1175.81 167.289 1180.37 176.258 1185.11 185.949C1189.84 195.64 1194.78 206.094 1199.61 217.212C1204.73 228.845 1209.24 240.755 1213.11 252.89C1215.1 259.201 1216.74 265.727 1218.43 272.429C1220.12 279.131 1221.78 285.853 1223.49 292.691C1230.08 318.361 1235.27 344.388 1239.04 370.652" fill="#E0E0E0"/>
<path d="M1214.04 252.323C1214.55 251.319 1214.95 250.265 1215.26 249.178C1215.96 247.106 1216.89 244.097 1217.98 240.365C1220.18 232.901 1222.86 222.487 1225.79 211.057C1228.72 199.626 1231.49 189.212 1233.85 181.748C1234.99 178.036 1235.94 175.046 1236.62 172.975C1237.04 171.931 1237.35 170.843 1237.54 169.732C1236.95 170.69 1236.47 171.712 1236.11 172.78C1235.27 174.734 1234.21 177.743 1232.92 181.416C1230.37 188.782 1227.39 199.118 1224.46 210.627C1221.53 222.135 1219.02 232.237 1217.04 240.092C1216.13 243.628 1215.35 246.618 1214.72 249.002C1214.37 250.078 1214.14 251.193 1214.04 252.323V252.323Z" fill="#E0E0E0"/>
<path d="M1120.91 218.755C1122.14 219.231 1123.41 219.591 1124.71 219.83C1127.12 220.436 1130.64 221.315 1134.96 222.527C1143.59 224.891 1155.41 228.584 1168.28 233.234C1181.15 237.884 1192.6 242.671 1200.79 246.364C1204.9 248.162 1208.18 249.725 1210.47 250.78C1211.62 251.405 1212.83 251.922 1214.08 252.324C1213.02 251.568 1211.89 250.914 1210.71 250.37C1208.49 249.139 1205.26 247.439 1201.21 245.505C1193.09 241.597 1181.65 236.653 1168.76 231.964C1157.76 227.927 1146.57 224.47 1135.22 221.608C1130.87 220.514 1127.31 219.791 1124.84 219.361C1123.55 219.032 1122.24 218.829 1120.91 218.755V218.755Z" fill="#E0E0E0"/>
<path d="M1239.36 368.425C1239.69 368.103 1239.97 367.735 1240.2 367.331L1242.38 364.029C1244.29 361.137 1246.85 356.897 1249.99 351.621C1256.3 341.07 1264.59 326.221 1273.51 309.671C1282.42 293.121 1290.61 278.213 1296.64 267.525L1304 254.903C1304.78 253.535 1305.42 252.402 1305.9 251.464C1306.16 251.072 1306.36 250.644 1306.51 250.194C1306.19 250.533 1305.91 250.906 1305.67 251.308C1305.08 252.206 1304.36 253.262 1303.5 254.61C1301.6 257.482 1299.02 261.722 1295.9 266.997C1289.59 277.568 1281.32 292.398 1272.38 308.968C1263.45 325.537 1255.27 340.425 1249.25 351.094L1242 363.716L1240.1 367.175C1239.81 367.557 1239.56 367.977 1239.36 368.425Z" fill="#E0E0E0"/>
<path d="M1118.32 306.134C1118.68 306.442 1119.07 306.692 1119.5 306.877L1123.02 308.733L1135.98 315.435C1146.91 321.101 1161.95 329.112 1178.55 337.944C1195.14 346.776 1210.26 354.669 1221.32 360.101C1226.85 362.817 1231.34 364.967 1234.48 366.393L1238.11 368.015C1238.52 368.225 1238.95 368.383 1239.4 368.484C1239.04 368.187 1238.64 367.938 1238.22 367.741L1234.7 365.885L1221.76 359.183C1210.81 353.536 1195.77 345.506 1179.17 336.674C1162.58 327.842 1147.47 319.948 1136.42 314.517C1130.89 311.801 1126.38 309.651 1123.25 308.225L1119.63 306.623C1119.22 306.4 1118.78 306.235 1118.32 306.134V306.134Z" fill="#E0E0E0"/>
<path d="M1371.26 421.24H1266.94C1265.22 421.248 1263.51 420.906 1261.92 420.234C1260.33 419.562 1258.89 418.574 1257.7 417.33C1256.5 416.087 1255.57 414.613 1254.96 412.999C1254.36 411.384 1254.08 409.663 1254.16 407.94L1265.8 107.52C1265.98 103.962 1267.51 100.606 1270.07 98.1349C1272.64 95.6639 1276.05 94.2639 1279.61 94.22H1383.93C1385.65 94.2129 1387.36 94.556 1388.95 95.2286C1390.54 95.9011 1391.97 96.8891 1393.17 98.1327C1394.36 99.3762 1395.29 100.849 1395.9 102.463C1396.51 104.077 1396.79 105.797 1396.71 107.52L1385.07 407.94C1384.89 411.498 1383.37 414.854 1380.8 417.325C1378.23 419.796 1374.82 421.196 1371.26 421.24Z" fill="#263238"/>
<path d="M1255.24 125.27H1254.24L1254.94 107.42C1255.15 102.958 1257.06 98.7464 1260.28 95.6483C1263.49 92.5502 1267.77 90.801 1272.24 90.7599V91.7599C1268.03 91.8012 1264 93.4505 1260.97 96.3696C1257.94 99.2888 1256.14 103.257 1255.94 107.46L1255.24 125.27Z" fill="url(#paint0_linear)"/>
<path d="M1287.83 90.72H1279.33V91.72H1287.83V90.72Z" fill="url(#paint1_linear)"/>
<path d="M1363.89 421.24H1259.57C1257.85 421.248 1256.14 420.906 1254.55 420.234C1252.96 419.562 1251.52 418.574 1250.33 417.33C1249.13 416.087 1248.2 414.613 1247.59 412.999C1246.99 411.384 1246.71 409.663 1246.79 407.94L1258.43 107.52C1258.61 103.962 1260.14 100.606 1262.7 98.1349C1265.27 95.6639 1268.68 94.2639 1272.24 94.22H1376.56C1378.28 94.2129 1379.99 94.556 1381.58 95.2286C1383.17 95.9011 1384.6 96.8891 1385.8 98.1327C1386.99 99.3762 1387.92 100.849 1388.53 102.463C1389.14 104.077 1389.42 105.797 1389.34 107.52L1377.7 407.94C1377.52 411.498 1375.99 414.854 1373.43 417.325C1370.86 419.796 1367.45 421.196 1363.89 421.24Z" fill="url(#paint2_linear)"/>
<path opacity="0.8" d="M1367.21 386.68H1258.93C1257.97 386.686 1257.01 386.496 1256.12 386.122C1255.23 385.747 1254.43 385.195 1253.76 384.5C1253.09 383.805 1252.57 382.981 1252.23 382.079C1251.89 381.176 1251.74 380.214 1251.78 379.25L1261.88 118.61C1261.98 116.618 1262.83 114.738 1264.27 113.355C1265.7 111.972 1267.62 111.191 1269.61 111.17H1377.88C1378.85 111.165 1379.8 111.356 1380.69 111.732C1381.58 112.108 1382.38 112.66 1383.05 113.356C1383.72 114.052 1384.24 114.877 1384.58 115.78C1384.92 116.683 1385.07 117.646 1385.03 118.61L1374.93 379.25C1374.83 381.239 1373.98 383.116 1372.55 384.498C1371.11 385.879 1369.2 386.659 1367.21 386.68V386.68Z" fill="white"/>
<path opacity="0.4" d="M1321.24 386.68H1294.24L1339.78 111.17H1366.78L1321.24 386.68Z" fill="white"/>
<path opacity="0.4" d="M1289.49 386.68H1275.99L1321.53 111.17H1335.03L1289.49 386.68Z" fill="white"/>
<path d="M1338.61 306.12H1285.37C1282.91 306.12 1280.96 303.43 1280.85 299.89L1279.34 250.46C1279.22 246.39 1281.56 242.86 1284.39 242.86H1344.39C1347.22 242.86 1349.29 246.39 1348.86 250.46L1343.6 299.89C1343.22 303.43 1341.06 306.12 1338.61 306.12Z" fill="url(#paint3_linear)"/>
<path d="M1338.61 308H1285.37C1281.86 308 1279.12 304.53 1278.98 299.95L1277.47 250.52C1277.32 247.729 1278.29 244.994 1280.15 242.91C1280.69 242.321 1281.35 241.847 1282.07 241.517C1282.8 241.187 1283.59 241.008 1284.39 240.99H1344.39C1345.19 241.009 1345.97 241.197 1346.69 241.542C1347.41 241.887 1348.05 242.38 1348.56 242.99C1349.43 244.059 1350.07 245.295 1350.44 246.621C1350.81 247.947 1350.91 249.335 1350.72 250.7L1345.46 300.13C1345 304.59 1342 308 1338.61 308ZM1284.39 244.73C1284.09 244.753 1283.8 244.835 1283.54 244.971C1283.27 245.106 1283.03 245.293 1282.84 245.52C1281.69 246.875 1281.1 248.624 1281.21 250.4L1282.72 299.83C1282.79 302.27 1283.98 304.25 1285.37 304.25H1338.61C1339.88 304.25 1341.45 302.42 1341.74 299.69L1347 250.26C1347.13 249.419 1347.08 248.561 1346.87 247.737C1346.66 246.913 1346.29 246.139 1345.78 245.46C1345.62 245.244 1345.41 245.066 1345.17 244.94C1344.93 244.814 1344.66 244.742 1344.39 244.73H1284.39Z" fill="url(#paint4_linear)"/>
<path d="M1343.6 301.76H1343.4C1343.16 301.734 1342.92 301.66 1342.7 301.542C1342.49 301.424 1342.3 301.265 1342.14 301.074C1341.99 300.883 1341.87 300.663 1341.81 300.427C1341.74 300.191 1341.71 299.944 1341.74 299.7L1347.52 245.37C1348.42 236.88 1353.77 230.48 1359.96 230.48H1364C1364.5 230.48 1364.97 230.677 1365.32 231.028C1365.67 231.378 1365.87 231.854 1365.87 232.35C1365.87 232.846 1365.67 233.322 1365.32 233.672C1364.97 234.023 1364.5 234.22 1364 234.22H1360C1355.8 234.22 1352 239.29 1351.28 245.77L1345.5 300.1C1345.45 300.565 1345.23 300.994 1344.87 301.301C1344.52 301.609 1344.07 301.773 1343.6 301.76V301.76Z" fill="url(#paint5_linear)"/>
<path d="M1296.32 324.51C1295.28 324.492 1294.25 324.261 1293.31 323.831C1292.36 323.401 1291.51 322.781 1290.81 322.01C1288.37 319.47 1287.01 315.32 1287.17 310.91C1287.46 303.44 1291.99 297.37 1297.28 297.37C1298.32 297.385 1299.35 297.615 1300.3 298.046C1301.24 298.476 1302.09 299.097 1302.79 299.87C1305.23 302.41 1306.59 306.56 1306.43 310.97C1306.14 318.44 1301.61 324.51 1296.32 324.51ZM1297.32 299C1292.9 299 1289.09 304.37 1288.84 311C1288.69 315 1289.84 318.68 1292.03 320.91C1292.58 321.522 1293.24 322.015 1293.99 322.359C1294.73 322.703 1295.54 322.89 1296.36 322.91C1300.78 322.91 1304.59 317.54 1304.84 310.91C1304.99 306.91 1303.84 303.23 1301.65 301C1301.1 300.383 1300.43 299.888 1299.67 299.543C1298.92 299.199 1298.11 299.014 1297.28 299H1297.32Z" fill="url(#paint6_linear)"/>
<path d="M1325.41 324.51C1324.37 324.492 1323.35 324.261 1322.4 323.831C1321.45 323.401 1320.61 322.781 1319.91 322.01C1317.46 319.47 1316.1 315.32 1316.27 310.91C1316.55 303.44 1321.09 297.37 1326.38 297.37C1327.42 297.386 1328.44 297.616 1329.39 298.046C1330.34 298.476 1331.18 299.097 1331.88 299.87C1334.33 302.41 1335.69 306.56 1335.52 310.97C1335.24 318.44 1330.7 324.51 1325.41 324.51ZM1326.41 299C1321.98 299 1318.18 304.37 1317.93 311C1317.78 315 1318.93 318.68 1321.11 320.91C1321.66 321.522 1322.32 322.015 1323.07 322.359C1323.81 322.703 1324.62 322.89 1325.44 322.91C1329.87 322.91 1333.67 317.54 1333.92 310.91C1334.07 306.91 1332.92 303.23 1330.74 301C1330.19 300.385 1329.52 299.889 1328.77 299.545C1328.02 299.201 1327.21 299.016 1326.38 299H1326.41Z" fill="url(#paint7_linear)"/>
<path d="M1337.57 194.254C1338.83 176.836 1330.12 162.012 1318.12 161.143C1306.12 160.274 1295.36 173.69 1294.1 191.107C1292.84 208.525 1301.55 223.349 1313.55 224.218C1325.56 225.087 1336.31 211.671 1337.57 194.254Z" fill="url(#paint8_linear)"/>
<path d="M1314.65 226.15C1312.1 226.107 1309.58 225.539 1307.25 224.481C1304.92 223.423 1302.84 221.897 1301.13 220C1295.13 213.74 1291.75 203.5 1292.13 192.63C1292.83 174.22 1303.99 159.25 1317.01 159.25C1319.56 159.29 1322.08 159.856 1324.41 160.912C1326.74 161.969 1328.82 163.493 1330.53 165.39C1336.53 171.66 1339.92 181.89 1339.53 192.77C1338.83 211.17 1327.67 226.15 1314.65 226.15ZM1317 163C1306 163 1296.48 176.36 1295.86 192.78C1295.48 202.66 1298.45 211.87 1303.79 217.42C1305.16 218.949 1306.82 220.181 1308.68 221.041C1310.54 221.901 1312.56 222.37 1314.61 222.42C1325.61 222.42 1335.13 209.06 1335.75 192.64C1336.13 182.76 1333.17 173.55 1327.83 168C1326.46 166.47 1324.8 165.237 1322.93 164.377C1321.07 163.517 1319.05 163.048 1317 163Z" fill="white"/>
<path d="M1301 192C1301 192 1309.3 200 1312.66 210.28C1315.56 202.28 1319.89 191.07 1330.2 178.52C1317.73 186.8 1312.98 197.19 1312.98 197.19C1309.51 194.449 1305.38 192.66 1301 192V192Z" fill="white"/>
<path d="M1312.11 411.93C1311.23 411.923 1310.36 411.734 1309.55 411.374C1308.75 411.014 1308.02 410.492 1307.43 409.84C1306.48 408.778 1305.76 407.538 1305.29 406.192C1304.83 404.845 1304.64 403.42 1304.74 402C1304.96 396.54 1308.59 392.1 1312.84 392.1C1313.72 392.11 1314.59 392.302 1315.4 392.663C1316.2 393.024 1316.93 393.548 1317.52 394.2C1318.46 395.257 1319.19 396.491 1319.65 397.83C1320.11 399.169 1320.29 400.587 1320.2 402C1320 407.49 1316.36 411.93 1312.11 411.93ZM1312.84 393.16C1309.15 393.16 1305.99 397.16 1305.84 402.04C1305.75 403.317 1305.91 404.599 1306.32 405.811C1306.73 407.024 1307.38 408.142 1308.23 409.1C1308.73 409.649 1309.33 410.09 1310.01 410.395C1310.68 410.699 1311.41 410.861 1312.15 410.87C1315.84 410.87 1319 406.87 1319.15 402C1319.24 400.722 1319.08 399.438 1318.67 398.224C1318.26 397.01 1317.61 395.89 1316.76 394.93C1316.26 394.381 1315.66 393.94 1314.98 393.635C1314.31 393.331 1313.58 393.169 1312.84 393.16V393.16Z" fill="white"/>
<path d="M1323.94 106.62C1323.53 106.609 1323.13 106.515 1322.76 106.343C1322.39 106.171 1322.05 105.925 1321.78 105.62C1321.36 105.15 1321.04 104.601 1320.83 104.005C1320.63 103.409 1320.55 102.778 1320.59 102.15C1320.68 99.7299 1322.32 97.7599 1324.24 97.7599C1324.65 97.7704 1325.05 97.8646 1325.42 98.0366C1325.8 98.2085 1326.13 98.4547 1326.4 98.7599C1326.82 99.2285 1327.15 99.7771 1327.35 100.373C1327.56 100.969 1327.64 101.601 1327.6 102.23C1327.51 104.65 1325.86 106.62 1323.94 106.62ZM1324.24 98.8599C1322.88 98.8599 1321.71 100.37 1321.64 102.23C1321.58 103.21 1321.9 104.176 1322.54 104.92C1322.72 105.117 1322.93 105.276 1323.17 105.386C1323.41 105.497 1323.68 105.556 1323.94 105.56C1325.3 105.56 1326.47 104.05 1326.54 102.19C1326.61 101.206 1326.29 100.235 1325.64 99.4899C1325.46 99.2947 1325.25 99.1381 1325.01 99.0298C1324.76 98.9214 1324.5 98.8636 1324.24 98.8599V98.8599Z" fill="white"/>
<path d="M1182.7 129.25C1171.25 127.72 1165.06 134.66 1168.32 147.25C1171.39 159.11 1165.45 157.53 1164.32 168.76C1163.19 179.99 1172.45 180.45 1175.46 189.62C1178.47 198.79 1195.1 209.21 1201.6 204.51C1208.1 199.81 1221 200.89 1222.18 185.37C1223.36 169.85 1211.08 169.01 1215.29 160.53C1220.77 149.53 1208.63 152.21 1208.63 138.19C1208.66 126.9 1192.29 114.67 1182.7 129.25Z" fill="#263238"/>
<path d="M1168.29 189C1168.04 193.79 1167.6 198.42 1166.9 203.13C1166.29 207.999 1165.22 212.8 1163.71 217.47C1163.24 218.833 1162.65 220.149 1161.93 221.4C1161.44 222.25 1160.84 223.031 1160.14 223.72L1159.79 224.04L1159.6 224.19L1159.49 224.28L1159.07 224.57L1158.24 225.15C1156.13 226.507 1153.9 227.684 1151.59 228.67C1147.21 230.592 1142.66 232.099 1138 233.17L1136.39 228.74C1140.34 226.55 1144.39 224.31 1148.09 221.99C1149.9 220.886 1151.63 219.67 1153.29 218.35L1153.83 217.88L1154.11 217.65V217.6C1154.11 217.6 1154.22 217.41 1154.36 217.12C1154.72 216.326 1155.01 215.507 1155.25 214.67C1155.82 212.635 1156.27 210.568 1156.59 208.48C1156.97 206.32 1157.28 204.11 1157.54 201.88C1158.05 197.44 1158.49 192.88 1158.83 188.45L1168.29 189Z" fill="#FFB573"/>
<path d="M1139.33 228.84L1131.69 226.48L1133.12 235.72C1133.12 235.72 1138.12 235.1 1140.53 232.31L1139.33 228.84Z" fill="#FFB573"/>
<path d="M1125.45 232.43L1125.87 233.64C1126.11 234.326 1126.57 234.917 1127.17 235.324C1127.77 235.731 1128.49 235.933 1129.22 235.9L1133.12 235.72L1131.69 226.48L1127.4 228.16C1126.59 228.483 1125.93 229.107 1125.57 229.903C1125.2 230.699 1125.16 231.604 1125.45 232.43V232.43Z" fill="#FFB573"/>
<path d="M1177.32 180.07C1177.32 182.96 1175.92 188.65 1174.73 192.93C1173.85 196.01 1173.11 198.35 1173.11 198.35L1171.36 197.91L1156.91 194.25C1156.68 186.83 1156.97 178.67 1164.35 173.79C1169 170.73 1177.28 174.93 1177.32 180.07Z" fill="url(#paint9_linear)"/>
<g opacity="0.5">
<path opacity="0.5" d="M1177.32 180.07C1177.32 182.96 1175.92 188.65 1174.73 192.93C1173.85 196.01 1173.11 198.35 1173.11 198.35L1171.36 197.91L1156.91 194.25C1156.68 186.83 1156.97 178.67 1164.35 173.79C1169 170.73 1177.28 174.93 1177.32 180.07Z" fill="black"/>
</g>
<path opacity="0.3" d="M1177.3 180.57C1176.36 179.57 1174.22 179.4 1169.56 180.88C1162.88 182.99 1161.01 190.31 1160.92 195.27L1171.36 197.91L1172.26 198.14L1173.11 198.35C1173.11 198.35 1173.48 197.18 1174 195.4C1174.21 194.67 1174.47 193.83 1174.72 192.93C1175.86 188.89 1177.18 183.57 1177.3 180.57Z" fill="black"/>
<path d="M1147.66 412.27L1138.84 409.18L1144.38 390.08L1153.19 393.18L1147.66 412.27Z" fill="#FFB573"/>
<path d="M1265.48 389.64L1258.31 394.98L1243.62 380.09L1250.79 374.74L1265.48 389.64Z" fill="#FFB573"/>
<path d="M1255.37 392.81L1263.12 386.4C1263.25 386.285 1263.42 386.222 1263.59 386.222C1263.76 386.222 1263.93 386.285 1264.06 386.4L1270.01 391.8C1270.16 391.94 1270.27 392.11 1270.35 392.298C1270.42 392.486 1270.46 392.688 1270.45 392.89C1270.44 393.093 1270.39 393.291 1270.3 393.472C1270.21 393.653 1270.08 393.812 1269.92 393.94C1267.18 396.13 1265.74 397.05 1262.34 399.86C1260.24 401.59 1255.86 405.73 1252.96 408.12C1250.06 410.51 1247.54 407.78 1248.54 406.52C1252.98 400.9 1254.01 397.2 1254.54 394.16C1254.65 393.627 1254.94 393.149 1255.37 392.81V392.81Z" fill="#263238"/>
<path d="M1138.24 406.43L1148.04 410.52C1148.21 410.598 1148.36 410.729 1148.45 410.895C1148.55 411.06 1148.58 411.251 1148.56 411.44L1147.45 420.08C1147.43 420.284 1147.35 420.48 1147.24 420.652C1147.13 420.823 1146.97 420.965 1146.79 421.067C1146.62 421.17 1146.42 421.228 1146.21 421.239C1146 421.25 1145.8 421.213 1145.61 421.13C1142.14 419.72 1140.51 419.02 1136.21 417.22L1123 411.72C1119.42 410.22 1120.19 406.29 1121.81 406.58C1129.06 407.89 1133.73 407.46 1136.59 406.38C1137.13 406.181 1137.72 406.199 1138.24 406.43V406.43Z" fill="#263238"/>
<path opacity="0.2" d="M1144.38 390.09L1141.53 399.93L1150.11 403.81L1153.2 393.18L1144.38 390.09Z" fill="black"/>
<path opacity="0.2" d="M1250.8 374.74L1243.62 380.09L1251.19 387.77L1258.37 382.42L1250.8 374.74Z" fill="black"/>
<path d="M1204.44 226.77L1168.11 227.29C1163.11 199.17 1161.96 185.74 1161.96 179.29C1161.96 177.681 1162.51 176.121 1163.53 174.876C1164.55 173.632 1165.97 172.781 1167.55 172.47C1169.77 172.04 1172.55 171.54 1175.3 171.16C1176.25 171.03 1177.21 170.91 1178.15 170.81C1183.63 170.334 1189.15 170.254 1194.64 170.57C1195.46 170.57 1196.27 170.64 1197.08 170.69C1200.76 170.93 1204.22 171.4 1206.65 171.78C1207.1 171.851 1207.53 172.013 1207.91 172.256C1208.29 172.499 1208.62 172.817 1208.88 173.192C1209.13 173.566 1209.31 173.989 1209.4 174.434C1209.48 174.879 1209.48 175.337 1209.38 175.78C1208.32 180.78 1207.45 185.17 1206.75 189.1C1205.64 195.35 1204.94 200.4 1204.53 204.83C1203.92 212.129 1203.88 219.466 1204.44 226.77V226.77Z" fill="url(#paint10_linear)"/>
<g opacity="0.5">
<path opacity="0.5" d="M1204.44 226.77L1168.11 227.29C1163.11 199.17 1161.96 185.74 1161.96 179.29C1161.96 177.681 1162.51 176.121 1163.53 174.876C1164.55 173.632 1165.97 172.781 1167.55 172.47C1169.77 172.04 1172.55 171.54 1175.3 171.16C1176.25 171.03 1177.21 170.91 1178.15 170.81C1183.63 170.334 1189.15 170.254 1194.64 170.57C1195.46 170.57 1196.27 170.64 1197.08 170.69C1200.76 170.93 1204.22 171.4 1206.65 171.78C1207.1 171.851 1207.53 172.013 1207.91 172.256C1208.29 172.499 1208.62 172.817 1208.88 173.192C1209.13 173.566 1209.31 173.989 1209.4 174.434C1209.48 174.879 1209.48 175.337 1209.38 175.78C1208.32 180.78 1207.45 185.17 1206.75 189.1C1205.64 195.35 1204.94 200.4 1204.53 204.83C1203.92 212.129 1203.88 219.466 1204.44 226.77V226.77Z" fill="black"/>
</g>
<path opacity="0.3" d="M1204.53 204.86C1202.7 199.38 1202.8 188 1204.77 184.31L1206.77 189.13C1205.64 195.38 1204.94 200.43 1204.53 204.86Z" fill="black"/>
<path d="M1191.93 159.34C1191.76 163.8 1192.29 168.43 1194.65 170.61C1194.65 170.61 1190.75 175.7 1181.57 180.7C1176.71 176.02 1178.15 170.85 1178.15 170.85C1184.05 169.35 1184.15 165.42 1182.42 158.9L1187.1 157C1187.53 156.621 1188.06 156.377 1188.63 156.3C1189.2 156.222 1189.78 156.314 1190.29 156.564C1190.81 156.814 1191.24 157.211 1191.53 157.705C1191.82 158.199 1191.96 158.767 1191.93 159.34Z" fill="#FFB573"/>
<path opacity="0.2" d="M1187.11 157C1187.51 156.648 1188.01 156.414 1188.53 156.324C1189.06 156.234 1189.6 156.29 1190.1 156.488C1190.6 156.685 1191.03 157.015 1191.35 157.443C1191.67 157.87 1191.87 158.378 1191.92 158.91C1189.86 162.093 1186.84 164.543 1183.3 165.91C1183.45 163.522 1183.15 161.128 1182.42 158.85L1187.11 157Z" fill="black"/>
<path d="M1200.38 146.24C1197.22 154.54 1196.05 158.11 1190.38 161.12C1181.91 165.64 1172.38 159.94 1173.04 150.86C1173.6 142.69 1178.68 130.5 1188.04 129.72C1190.1 129.536 1192.17 129.881 1194.06 130.724C1195.95 131.567 1197.59 132.879 1198.82 134.535C1200.06 136.191 1200.85 138.136 1201.13 140.185C1201.4 142.234 1201.14 144.318 1200.38 146.24V146.24Z" fill="#FFB573"/>
<path d="M1184.49 129.68C1178.6 137.99 1195.49 135.95 1194.65 141.81C1194.16 145.37 1189.08 152 1198 153.24C1206.92 154.48 1209.13 139.92 1204.54 134.45C1199.95 128.98 1190.28 125.43 1184.49 129.68Z" fill="#263238"/>
<path d="M1186.36 129.43C1185.14 132.43 1178.65 136.54 1176.28 135.78C1177 132.19 1183.05 128.78 1186.36 129.43Z" fill="#263238"/>
<path d="M1199.84 154.71C1198.95 156.176 1197.51 157.229 1195.84 157.64C1193.62 158.16 1192.61 156.16 1193.3 154.11C1193.92 152.28 1195.83 149.79 1198.01 150.18C1198.49 150.272 1198.93 150.482 1199.31 150.791C1199.68 151.099 1199.98 151.497 1200.16 151.947C1200.34 152.398 1200.41 152.886 1200.35 153.369C1200.29 153.851 1200.12 154.313 1199.84 154.71V154.71Z" fill="#FFB573"/>
<path d="M1168.11 227.29C1168.11 227.29 1161.96 280.17 1156.29 313.09C1151.85 338.88 1140.63 392.58 1140.63 392.58L1155.19 397.74C1155.19 397.74 1171.87 341.74 1174.79 317.86C1186.55 283.4 1195 227 1195 227L1168.11 227.29Z" fill="url(#paint11_linear)"/>
<path d="M1138.26 396.21L1155.12 402.15L1157.37 396.74L1139.09 389.75L1138.26 396.21Z" fill="#263238"/>
<path opacity="0.3" d="M1186.52 243L1181.08 253.43C1179.08 261.29 1179.56 280.43 1182.08 292.52C1186.61 274.29 1190.23 255.11 1192.48 242.24L1186.52 243Z" fill="black"/>
<path d="M1176 227.29C1176 227.29 1182.51 286.47 1194.66 319.29C1200.75 335.78 1245.96 384.63 1245.96 384.63L1256.16 376.47C1256.16 376.47 1227.49 327.18 1214.96 314.3C1209.85 285.67 1216.27 242.8 1204.4 226.75L1176 227.29Z" fill="url(#paint12_linear)"/>
<path d="M1246.83 388.17L1258.79 378.36L1255.56 373.06L1242.46 384.46L1246.83 388.17Z" fill="#263238"/>
<path d="M1205 224.64L1206.68 227.86C1206.81 228.11 1206.52 228.38 1206.1 228.38L1167.99 228.93C1167.66 228.93 1167.39 228.77 1167.36 228.57L1166.99 225.32C1166.99 225.1 1167.25 224.9 1167.6 224.9L1204.4 224.37C1204.52 224.36 1204.63 224.379 1204.74 224.426C1204.84 224.474 1204.93 224.547 1205 224.64V224.64Z" fill="#263238"/>
<path d="M1200.07 228.82H1201.07C1201.26 228.82 1201.41 228.71 1201.4 228.59L1200.87 224.37C1200.87 224.24 1200.69 224.15 1200.49 224.15H1199.49C1199.3 224.15 1199.15 224.26 1199.17 224.38L1199.69 228.6C1199.7 228.72 1199.88 228.82 1200.07 228.82Z" fill="url(#paint13_linear)"/>
<path d="M1170.72 229.24H1171.72C1171.92 229.24 1172.06 229.13 1172.05 229.01L1171.53 224.79C1171.53 224.66 1171.34 224.56 1171.14 224.57H1170.14C1169.94 224.57 1169.79 224.68 1169.81 224.8L1170.33 229.02C1170.35 229.14 1170.53 229.24 1170.72 229.24Z" fill="url(#paint14_linear)"/>
<path d="M1185.4 229H1186.4C1186.6 229 1186.75 228.89 1186.73 228.77L1186.21 224.55C1186.21 224.42 1186.02 224.32 1185.83 224.33H1184.83C1184.63 224.33 1184.49 224.44 1184.5 224.56L1185.02 228.78C1185 228.93 1185.2 229 1185.4 229Z" fill="url(#paint15_linear)"/>
<path d="M1185.78 144.21C1185.57 144.9 1185.03 145.34 1184.58 145.21C1184.13 145.08 1183.94 144.4 1184.15 143.71C1184.36 143.02 1184.91 142.57 1185.36 142.71C1185.81 142.85 1186 143.52 1185.78 144.21Z" fill="#263238"/>
<path d="M1178 141.77C1177.78 142.46 1177.24 142.9 1176.79 142.77C1176.34 142.64 1176.15 141.96 1176.37 141.27C1176.59 140.58 1177.12 140.14 1177.57 140.27C1178.02 140.4 1178.21 141.08 1178 141.77Z" fill="#263238"/>
<path d="M1177.76 140.37L1176.26 139.37C1176.26 139.37 1176.7 140.93 1177.76 140.37Z" fill="#263238"/>
<path d="M1179.92 143.59C1178.82 144.971 1177.53 146.193 1176.09 147.22C1176.36 147.58 1176.71 147.876 1177.11 148.088C1177.51 148.3 1177.95 148.424 1178.4 148.45L1179.92 143.59Z" fill="#ED893E"/>
<path d="M1180.7 152.27C1180.67 152.244 1180.64 152.208 1180.63 152.167C1180.61 152.125 1180.62 152.081 1180.63 152.04C1180.65 151.986 1180.69 151.942 1180.74 151.916C1180.79 151.89 1180.85 151.884 1180.9 151.9C1181.75 152.188 1182.66 152.272 1183.54 152.143C1184.43 152.014 1185.28 151.678 1186.01 151.16C1186.03 151.142 1186.06 151.129 1186.08 151.121C1186.11 151.113 1186.14 151.11 1186.17 151.113C1186.19 151.116 1186.22 151.124 1186.25 151.137C1186.27 151.15 1186.29 151.168 1186.31 151.19C1186.33 151.212 1186.34 151.237 1186.35 151.263C1186.36 151.29 1186.36 151.318 1186.36 151.346C1186.35 151.374 1186.35 151.401 1186.33 151.426C1186.32 151.45 1186.3 151.472 1186.28 151.49C1185.49 152.057 1184.58 152.427 1183.62 152.569C1182.67 152.712 1181.69 152.623 1180.77 152.31L1180.7 152.27Z" fill="#263238"/>
<path d="M1188.77 142.35C1188.71 142.301 1188.67 142.24 1188.64 142.17C1188.48 141.664 1188.2 141.205 1187.82 140.829C1187.45 140.454 1186.99 140.173 1186.48 140.01C1186.37 139.984 1186.28 139.916 1186.22 139.82C1186.16 139.725 1186.14 139.61 1186.16 139.5C1186.19 139.39 1186.25 139.296 1186.35 139.236C1186.45 139.176 1186.56 139.156 1186.67 139.18C1187.31 139.377 1187.9 139.724 1188.38 140.194C1188.86 140.664 1189.23 141.242 1189.44 141.88C1189.48 141.986 1189.47 142.103 1189.43 142.206C1189.38 142.309 1189.3 142.39 1189.19 142.43C1189.12 142.453 1189.04 142.457 1188.97 142.443C1188.9 142.429 1188.83 142.397 1188.77 142.35V142.35Z" fill="#263238"/>
<path d="M1175.68 137.3C1175.68 137.3 1175.68 137.25 1175.68 137.23C1175.67 137.176 1175.67 137.12 1175.68 137.065C1175.69 137.011 1175.72 136.96 1175.75 136.914C1175.78 136.869 1175.82 136.83 1175.87 136.8C1175.91 136.77 1175.97 136.75 1176.02 136.74C1176.68 136.606 1177.36 136.632 1178.01 136.816C1178.66 137.001 1179.25 137.338 1179.74 137.8C1179.78 137.839 1179.81 137.886 1179.83 137.937C1179.86 137.989 1179.87 138.044 1179.87 138.1C1179.87 138.156 1179.86 138.211 1179.83 138.263C1179.81 138.314 1179.78 138.361 1179.74 138.4C1179.66 138.478 1179.55 138.522 1179.44 138.522C1179.33 138.522 1179.22 138.478 1179.14 138.4C1178.74 138.033 1178.26 137.768 1177.74 137.627C1177.22 137.486 1176.67 137.474 1176.14 137.59C1176.04 137.604 1175.94 137.583 1175.86 137.53C1175.77 137.476 1175.71 137.395 1175.68 137.3Z" fill="#263238"/>
<path d="M1141.18 176.8C1139.7 174.41 1138.42 169.74 1140.95 167.1C1143.48 164.46 1145.45 163.71 1144.82 159.1C1144.19 154.49 1151.23 154.62 1151.82 151.1C1155.33 154.1 1159.05 161.1 1157.06 164.31C1155.07 167.52 1156.14 169.93 1155.71 173.82C1155.28 177.71 1146.78 185.86 1141.18 176.8Z" fill="url(#paint16_linear)"/>
<path opacity="0.5" d="M1141.18 176.8C1139.7 174.41 1138.42 169.74 1140.95 167.1C1143.48 164.46 1145.45 163.71 1144.82 159.1C1144.19 154.49 1151.23 154.62 1151.82 151.1C1155.33 154.1 1159.05 161.1 1157.06 164.31C1155.07 167.52 1156.14 169.93 1155.71 173.82C1155.28 177.71 1146.78 185.86 1141.18 176.8Z" fill="white"/>
<path d="M1152.11 158.51C1150.41 169.19 1147.28 181.66 1142.79 190.93C1143.88 190.841 1144.91 190.366 1145.68 189.59C1145.68 189.59 1152.79 170.28 1152.11 158.51Z" fill="url(#paint17_linear)"/>
<path d="M1137.81 182.05C1135.56 180.37 1132.66 176.5 1134.03 173.11C1135.4 169.72 1136.97 168.3 1134.68 164.24C1132.39 160.18 1139 157.7 1138.25 154.24C1142.64 155.78 1148.67 160.91 1147.98 164.59C1147.29 168.27 1149.19 170.16 1150.22 173.93C1151.25 177.7 1146.36 188.41 1137.81 182.05Z" fill="url(#paint18_linear)"/>
<path opacity="0.6" d="M1137.81 182.05C1135.56 180.37 1132.66 176.5 1134.03 173.11C1135.4 169.72 1136.97 168.3 1134.68 164.24C1132.39 160.18 1139 157.7 1138.25 154.24C1142.64 155.78 1148.67 160.91 1147.98 164.59C1147.29 168.27 1149.19 170.16 1150.22 173.93C1151.25 177.7 1146.36 188.41 1137.81 182.05Z" fill="white"/>
<path d="M1153.88 185.27C1156.24 185.1 1160.07 183.67 1160.64 180.63C1161.21 177.59 1160.74 175.87 1164.22 174.02C1167.7 172.17 1164.12 167.41 1166.22 165.29C1162.4 164.39 1155.78 165.29 1154.58 168.23C1153.38 171.17 1151.19 171.63 1148.74 173.85C1146.29 176.07 1144.9 185.91 1153.88 185.27Z" fill="url(#paint19_linear)"/>
<path opacity="0.7" d="M1153.88 185.27C1156.24 185.1 1160.07 183.67 1160.64 180.63C1161.21 177.59 1160.74 175.87 1164.22 174.02C1167.7 172.17 1164.12 167.41 1166.22 165.29C1162.4 164.39 1155.78 165.29 1154.58 168.23C1153.38 171.17 1151.19 171.63 1148.74 173.85C1146.29 176.07 1144.9 185.91 1153.88 185.27Z" fill="white"/>
<path d="M1140.73 165.39C1142.52 174.74 1143.38 185.87 1141.73 194.55C1142.8 194.337 1143.75 193.739 1144.4 192.87C1144.4 192.87 1145.45 175.22 1140.73 165.39Z" fill="url(#paint20_linear)"/>
<path d="M1159.42 170.5C1153.16 177.36 1146.47 186.13 1142.66 194.11C1142.14 193.327 1141.91 192.386 1142.01 191.45C1142.01 191.45 1151.16 176.34 1159.42 170.5Z" fill="url(#paint21_linear)"/>
<path d="M1131.18 179.88C1128.35 178.33 1122.76 182.66 1125.7 187.69C1128.64 192.72 1134.7 195.05 1137.5 192.35C1141.36 191.66 1143.04 185.42 1140.72 180.08C1138.4 174.74 1131.61 176.68 1131.18 179.88Z" fill="url(#paint22_linear)"/>
<path d="M1131.18 179.88C1131.18 179.88 1130.18 176.63 1131.83 175.59C1132.05 175.871 1132.26 176.165 1132.45 176.47C1132.45 176.47 1131.33 176.78 1131.18 179.88Z" fill="#263238"/>
<path d="M1163.17 171.4C1162.83 178.27 1155.77 183.49 1148.1 185.17C1147.63 185.655 1147.28 186.249 1147.1 186.9C1147.04 187.049 1147.02 187.216 1147.07 187.373C1147.11 187.529 1147.21 187.666 1147.34 187.76C1147.92 188.242 1148.61 188.584 1149.34 188.76C1153.39 188.858 1157.34 187.487 1160.46 184.9C1164.46 181.84 1168.11 175.78 1166.96 172.97C1165.81 170.16 1164.9 171.1 1164.46 168.97C1164.22 168.106 1164.11 167.208 1164.15 166.31C1164.15 166.31 1163.15 166.78 1162.9 167.39C1163.23 168.25 1163.28 169.16 1163.17 171.4Z" fill="url(#paint23_linear)"/>
<path opacity="0.2" d="M1167 173C1166.74 172.246 1166.31 171.562 1165.74 171C1165.82 173.26 1165.24 176 1162.74 180C1160.13 184.18 1153.13 187.9 1147.09 187.53C1147.14 187.627 1147.21 187.709 1147.3 187.77C1147.88 188.252 1148.57 188.594 1149.3 188.77C1153.35 188.869 1157.3 187.498 1160.42 184.91C1164.43 181.88 1168.11 175.82 1167 173Z" fill="black"/>
<path d="M1163.19 168.8C1163.04 168.285 1162.87 167.777 1162.67 167.28C1163.08 166.749 1163.64 166.35 1164.27 166.13V167.78C1164.27 167.78 1163.72 168.73 1163.19 168.8Z" fill="#263238"/>
<path d="M1147.34 186.22C1147.19 186.388 1147.04 186.565 1146.91 186.75C1146.84 186.949 1146.84 187.164 1146.9 187.365C1146.96 187.566 1147.08 187.743 1147.25 187.87C1147.31 187.935 1147.39 187.987 1147.47 188.023C1147.55 188.059 1147.64 188.078 1147.73 188.08C1147.54 187.773 1147.39 187.435 1147.31 187.08C1147.3 186.793 1147.31 186.506 1147.34 186.22Z" fill="#263238"/>
<path d="M1168.67 174.5C1166.9 181.14 1158.91 184.77 1151.05 184.81C1150.48 185.175 1150 185.681 1149.68 186.28C1149.58 186.408 1149.52 186.566 1149.52 186.73C1149.52 186.894 1149.58 187.052 1149.68 187.18C1150.15 187.796 1150.77 188.29 1151.47 188.62C1152.27 188.83 1157 190.14 1163.15 187.18C1167.66 185 1172.53 179.85 1172 176.87C1171.47 173.89 1170.37 174.61 1170.39 172.45C1170.32 171.556 1170.41 170.656 1170.64 169.79C1170.09 169.91 1169.59 170.18 1169.19 170.57C1169.38 171.42 1169.24 172.33 1168.67 174.5Z" fill="url(#paint24_linear)"/>
<path opacity="0.2" d="M1172.05 176.87C1171.95 176.071 1171.68 175.305 1171.24 174.63C1170.84 176.86 1169.7 179.45 1166.45 182.8C1163.03 186.34 1155.45 188.53 1149.58 186.9C1149.61 187.004 1149.66 187.1 1149.73 187.18C1150.21 187.792 1150.82 188.285 1151.52 188.62C1152.32 188.83 1157.05 190.13 1163.2 187.17C1167.71 185 1172.58 179.85 1172.05 176.87Z" fill="black"/>
<path d="M1169.23 172C1169.23 172 1169.14 170.83 1169.04 170.41C1169.55 169.981 1170.18 169.707 1170.84 169.62L1170.48 171.23C1170.48 171.23 1169.76 172 1169.23 172Z" fill="#263238"/>
<path d="M1150.09 185.68C1150.09 185.68 1149.74 185.94 1149.56 186.11C1149.45 186.29 1149.41 186.498 1149.42 186.706C1149.44 186.914 1149.52 187.111 1149.66 187.27C1149.9 187.57 1150.09 187.58 1150.09 187.58C1149.96 187.241 1149.89 186.883 1149.88 186.52C1149.94 186.18 1150.09 185.68 1150.09 185.68Z" fill="#263238"/>
<path d="M1173.31 181.946L1124.5 188.649L1132 243.287L1180.82 236.583L1173.31 181.946Z" fill="url(#paint25_linear)"/>
<path opacity="0.8" d="M1173.31 181.946L1124.5 188.649L1132 243.287L1180.82 236.583L1173.31 181.946Z" fill="white"/>
<path opacity="0.2" d="M1173.31 181.949L1158.91 183.928L1166.41 238.565L1180.82 236.587L1173.31 181.949Z" fill="url(#paint26_linear)"/>
<path opacity="0.2" d="M1180.83 236.58L1172.9 232.32L1166.12 182.94L1173.32 181.95L1180.83 236.58Z" fill="url(#paint27_linear)"/>
<path opacity="0.3" d="M1172.9 232.32L1166.42 238.56L1180.83 236.58L1172.9 232.32Z" fill="url(#paint28_linear)"/>
<path d="M1188.7 228.92L1181.26 226L1181.99 235.32C1181.99 235.32 1186.99 235.08 1189.64 232.47L1188.7 228.92Z" fill="#FFB573"/>
<path d="M1212.17 182.47C1214.17 188.07 1215.89 193.63 1217.37 199.39C1218.11 202.26 1218.81 205.15 1219.37 208.15C1219.64 209.64 1219.88 211.15 1220.06 212.73C1220.26 214.389 1220.33 216.06 1220.27 217.73C1220.24 218.813 1220.07 219.888 1219.77 220.93C1219.36 222.212 1218.68 223.39 1217.77 224.38C1216.44 225.803 1214.85 226.969 1213.1 227.82C1210.23 229.215 1207.21 230.272 1204.1 230.97C1198.28 232.321 1192.34 233.114 1186.37 233.34L1185.79 228.66C1188.51 228.01 1191.3 227.29 1194.01 226.53C1196.72 225.77 1199.42 224.93 1202.01 223.98C1204.48 223.134 1206.86 222.045 1209.12 220.73C1209.94 220.25 1210.67 219.635 1211.29 218.91C1211.45 218.66 1211.45 218.59 1211.42 218.59C1211.45 218.224 1211.45 217.856 1211.42 217.49C1211.38 216.283 1211.25 215.08 1211.04 213.89C1210.84 212.59 1210.57 211.26 1210.27 209.89C1209.64 207.22 1208.95 204.5 1208.17 201.78C1206.61 196.38 1204.86 190.89 1203.1 185.56L1212.17 182.47Z" fill="#FFB573"/>
<path d="M1174.36 230.6L1174.94 232.76C1175.13 233.446 1175.53 234.055 1176.09 234.494C1176.64 234.934 1177.33 235.181 1178.04 235.2L1182.04 235.31L1181.31 225.99L1177.23 226.46C1176.75 226.508 1176.29 226.658 1175.88 226.901C1175.47 227.144 1175.11 227.474 1174.84 227.868C1174.57 228.261 1174.38 228.709 1174.3 229.181C1174.22 229.653 1174.24 230.137 1174.36 230.6V230.6Z" fill="#FFB573"/>
<path d="M1207.93 172.05C1212.11 173.75 1215.53 187.49 1215.53 187.49L1203.98 196.49C1203.98 196.49 1195.8 183.68 1197.47 178.12C1198.89 173.43 1202.61 169.9 1207.93 172.05Z" fill="url(#paint29_linear)"/>
<g opacity="0.5">
<path opacity="0.5" d="M1207.93 172.05C1212.11 173.75 1215.53 187.49 1215.53 187.49L1203.98 196.49C1203.98 196.49 1195.8 183.68 1197.47 178.12C1198.89 173.43 1202.61 169.9 1207.93 172.05Z" fill="black"/>
</g>
<path d="M1252.54 396.69H1252.39C1252.18 396.678 1251.98 396.612 1251.8 396.498C1251.63 396.384 1251.49 396.226 1251.39 396.04C1251.32 395.934 1251.27 395.811 1251.26 395.683C1251.25 395.555 1251.28 395.426 1251.33 395.31C1251.84 394.31 1255.05 393.91 1255.41 393.87C1255.45 393.864 1255.5 393.871 1255.53 393.891C1255.57 393.91 1255.6 393.942 1255.62 393.98C1255.64 394.014 1255.65 394.054 1255.65 394.095C1255.65 394.136 1255.64 394.176 1255.62 394.21C1254.94 395.12 1253.64 396.61 1252.54 396.69ZM1254.97 394.36C1253.69 394.55 1251.97 394.96 1251.73 395.5C1251.7 395.548 1251.68 395.603 1251.68 395.66C1251.68 395.717 1251.7 395.772 1251.73 395.82C1251.79 395.946 1251.88 396.053 1251.99 396.13C1252.11 396.208 1252.24 396.253 1252.38 396.26C1253 396.29 1254 395.59 1255 394.36H1254.97Z" fill="#263238"/>
<path d="M1255.26 394.32C1254.17 394.39 1252.01 393.94 1251.55 393.1C1251.47 392.951 1251.45 392.779 1251.48 392.613C1251.51 392.448 1251.6 392.298 1251.73 392.19C1251.84 392.072 1251.98 391.979 1252.13 391.919C1252.28 391.858 1252.44 391.831 1252.6 391.84C1253.9 391.84 1255.55 393.84 1255.6 393.95C1255.62 393.98 1255.63 394.014 1255.63 394.05C1255.63 394.086 1255.62 394.12 1255.6 394.15C1255.59 394.187 1255.57 394.22 1255.54 394.244C1255.51 394.269 1255.48 394.285 1255.44 394.29L1255.26 394.32ZM1252.5 392.26C1252.33 392.275 1252.16 392.353 1252.04 392.48C1251.85 392.68 1251.88 392.81 1251.93 392.9C1252.22 393.45 1253.93 393.9 1255.02 393.9C1254.43 393.27 1253.36 392.28 1252.59 392.25L1252.5 392.26Z" fill="#263238"/>
<path d="M1133.22 406.23C1132.54 406.002 1131.94 405.573 1131.5 405C1131.4 404.828 1131.34 404.636 1131.32 404.437C1131.3 404.237 1131.33 404.037 1131.4 403.85C1131.43 403.743 1131.49 403.647 1131.58 403.571C1131.66 403.496 1131.76 403.444 1131.87 403.42C1133.01 403.2 1135.71 406.1 1136.24 406.69C1136.26 406.725 1136.28 406.767 1136.28 406.81C1136.28 406.853 1136.26 406.895 1136.24 406.93C1136.22 406.97 1136.18 407.002 1136.14 407.022C1136.1 407.041 1136.06 407.048 1136.01 407.04C1135.06 406.862 1134.12 406.591 1133.22 406.23V406.23ZM1132.37 403.89C1132.24 403.825 1132.1 403.798 1131.95 403.81C1131.95 403.81 1131.84 403.81 1131.8 403.96C1131.75 404.09 1131.73 404.229 1131.74 404.368C1131.75 404.507 1131.8 404.641 1131.87 404.76C1132.26 405.43 1133.59 406.06 1135.48 406.47C1134.58 405.457 1133.53 404.587 1132.37 403.89V403.89Z" fill="#263238"/>
<path d="M1136 407C1135.97 406.989 1135.95 406.972 1135.93 406.95C1135.01 406.04 1133.53 403.32 1134.04 402.45C1134.16 402.26 1134.4 402.06 1134.93 402.21C1136.93 402.79 1136.32 406.67 1136.29 406.84C1136.28 406.879 1136.27 406.915 1136.24 406.944C1136.21 406.972 1136.18 406.992 1136.14 407C1136.12 407.01 1136.09 407.015 1136.07 407.015C1136.05 407.015 1136.02 407.01 1136 407ZM1135 402.66H1134.86C1134.65 402.6 1134.51 402.61 1134.46 402.66C1134.16 403.17 1135.11 405.22 1135.98 406.31C1136 405.35 1136.12 403.15 1135 402.66Z" fill="#263238"/>
<path d="M1185.55 142.81L1184.04 141.81C1184.04 141.81 1184.49 143.37 1185.55 142.81Z" fill="#263238"/>
<defs>
<linearGradient id="paint0_linear" x1="1263.24" y1="90.7599" x2="1263.24" y2="125.27" gradientUnits="userSpaceOnUse">
<stop stop-color="#A41BD3"/>
<stop offset="1" stop-color="#FB6464" stop-opacity="0.91"/>
</linearGradient>
<linearGradient id="paint1_linear" x1="1283.58" y1="90.72" x2="1283.58" y2="91.72" gradientUnits="userSpaceOnUse">
<stop stop-color="#A41BD3"/>
<stop offset="1" stop-color="#FB6464" stop-opacity="0.91"/>
</linearGradient>
<linearGradient id="paint2_linear" x1="1318.06" y1="94.2198" x2="1318.06" y2="421.24" gradientUnits="userSpaceOnUse">
<stop stop-color="#A41BD3"/>
<stop offset="1" stop-color="#FB6464" stop-opacity="0.91"/>
</linearGradient>
<linearGradient id="paint3_linear" x1="1314.13" y1="242.86" x2="1314.13" y2="306.12" gradientUnits="userSpaceOnUse">
<stop stop-color="#A41BD3"/>
<stop offset="1" stop-color="#FB6464" stop-opacity="0.91"/>
</linearGradient>
<linearGradient id="paint4_linear" x1="1314.13" y1="240.99" x2="1314.13" y2="308" gradientUnits="userSpaceOnUse">
<stop stop-color="#A41BD3"/>
<stop offset="1" stop-color="#FB6464" stop-opacity="0.91"/>
</linearGradient>
<linearGradient id="paint5_linear" x1="1353.8" y1="230.48" x2="1353.8" y2="301.761" gradientUnits="userSpaceOnUse">
<stop stop-color="#A41BD3"/>
<stop offset="1" stop-color="#FB6464" stop-opacity="0.91"/>
</linearGradient>
<linearGradient id="paint6_linear" x1="1296.8" y1="297.37" x2="1296.8" y2="324.51" gradientUnits="userSpaceOnUse">
<stop stop-color="#A41BD3"/>
<stop offset="1" stop-color="#FB6464" stop-opacity="0.91"/>
</linearGradient>
<linearGradient id="paint7_linear" x1="1325.9" y1="297.37" x2="1325.9" y2="324.51" gradientUnits="userSpaceOnUse">
<stop stop-color="#A41BD3"/>
<stop offset="1" stop-color="#FB6464" stop-opacity="0.91"/>
</linearGradient>
<linearGradient id="paint8_linear" x1="1294.1" y1="191.107" x2="1337.57" y2="194.254" gradientUnits="userSpaceOnUse">
<stop stop-color="#A41BD3"/>
<stop offset="1" stop-color="#FB6464" stop-opacity="0.91"/>
</linearGradient>
<linearGradient id="paint9_linear" x1="1167.09" y1="172.754" x2="1167.09" y2="198.35" gradientUnits="userSpaceOnUse">
<stop stop-color="#A41BD3"/>
<stop offset="1" stop-color="#FB6464" stop-opacity="0.91"/>
</linearGradient>
<linearGradient id="paint10_linear" x1="1185.71" y1="170.381" x2="1185.71" y2="227.29" gradientUnits="userSpaceOnUse">
<stop stop-color="#A41BD3"/>
<stop offset="1" stop-color="#FB6464" stop-opacity="0.91"/>
</linearGradient>
<linearGradient id="paint11_linear" x1="1167.82" y1="227" x2="1167.82" y2="397.74" gradientUnits="userSpaceOnUse">
<stop stop-color="#A41BD3"/>
<stop offset="1" stop-color="#FB6464" stop-opacity="0.91"/>
</linearGradient>
<linearGradient id="paint12_linear" x1="1216.08" y1="226.75" x2="1216.08" y2="384.63" gradientUnits="userSpaceOnUse">
<stop stop-color="#A41BD3"/>
<stop offset="1" stop-color="#FB6464" stop-opacity="0.91"/>
</linearGradient>
<linearGradient id="paint13_linear" x1="1200.28" y1="224.15" x2="1200.28" y2="228.82" gradientUnits="userSpaceOnUse">
<stop stop-color="#A41BD3"/>
<stop offset="1" stop-color="#FB6464" stop-opacity="0.91"/>
</linearGradient>
<linearGradient id="paint14_linear" x1="1170.93" y1="224.569" x2="1170.93" y2="229.24" gradientUnits="userSpaceOnUse">
<stop stop-color="#A41BD3"/>
<stop offset="1" stop-color="#FB6464" stop-opacity="0.91"/>
</linearGradient>
<linearGradient id="paint15_linear" x1="1185.62" y1="224.329" x2="1185.62" y2="229" gradientUnits="userSpaceOnUse">
<stop stop-color="#A41BD3"/>
<stop offset="1" stop-color="#FB6464" stop-opacity="0.91"/>
</linearGradient>
<linearGradient id="paint16_linear" x1="1148.56" y1="151.1" x2="1148.56" y2="180.919" gradientUnits="userSpaceOnUse">
<stop stop-color="#A41BD3"/>
<stop offset="1" stop-color="#FB6464" stop-opacity="0.91"/>
</linearGradient>
<linearGradient id="paint17_linear" x1="1147.47" y1="158.51" x2="1147.47" y2="190.93" gradientUnits="userSpaceOnUse">
<stop stop-color="#A41BD3"/>
<stop offset="1" stop-color="#FB6464" stop-opacity="0.91"/>
</linearGradient>
<linearGradient id="paint18_linear" x1="1142.02" y1="154.24" x2="1142.02" y2="184.025" gradientUnits="userSpaceOnUse">
<stop stop-color="#A41BD3"/>
<stop offset="1" stop-color="#FB6464" stop-opacity="0.91"/>
</linearGradient>
<linearGradient id="paint19_linear" x1="1156.56" y1="164.956" x2="1156.56" y2="185.3" gradientUnits="userSpaceOnUse">
<stop stop-color="#A41BD3"/>
<stop offset="1" stop-color="#FB6464" stop-opacity="0.91"/>
</linearGradient>
<linearGradient id="paint20_linear" x1="1142.62" y1="165.39" x2="1142.62" y2="194.55" gradientUnits="userSpaceOnUse">
<stop stop-color="#A41BD3"/>
<stop offset="1" stop-color="#FB6464" stop-opacity="0.91"/>
</linearGradient>
<linearGradient id="paint21_linear" x1="1150.7" y1="170.5" x2="1150.7" y2="194.11" gradientUnits="userSpaceOnUse">
<stop stop-color="#A41BD3"/>
<stop offset="1" stop-color="#FB6464" stop-opacity="0.91"/>
</linearGradient>
<linearGradient id="paint22_linear" x1="1133.32" y1="176.745" x2="1133.32" y2="193.487" gradientUnits="userSpaceOnUse">
<stop stop-color="#A41BD3"/>
<stop offset="1" stop-color="#FB6464" stop-opacity="0.91"/>
</linearGradient>
<linearGradient id="paint23_linear" x1="1157.11" y1="166.31" x2="1157.11" y2="188.765" gradientUnits="userSpaceOnUse">
<stop stop-color="#A41BD3"/>
<stop offset="1" stop-color="#FB6464" stop-opacity="0.91"/>
</linearGradient>
<linearGradient id="paint24_linear" x1="1160.78" y1="169.79" x2="1160.78" y2="189.089" gradientUnits="userSpaceOnUse">
<stop stop-color="#A41BD3"/>
<stop offset="1" stop-color="#FB6464" stop-opacity="0.91"/>
</linearGradient>
<linearGradient id="paint25_linear" x1="1148.91" y1="185.298" x2="1156.41" y2="239.935" gradientUnits="userSpaceOnUse">
<stop stop-color="#A41BD3"/>
<stop offset="1" stop-color="#FB6464" stop-opacity="0.91"/>
</linearGradient>
<linearGradient id="paint26_linear" x1="1166.11" y1="182.939" x2="1173.61" y2="237.576" gradientUnits="userSpaceOnUse">
<stop stop-color="#A41BD3"/>
<stop offset="1" stop-color="#FB6464" stop-opacity="0.91"/>
</linearGradient>
<linearGradient id="paint27_linear" x1="1173.48" y1="181.95" x2="1173.48" y2="236.58" gradientUnits="userSpaceOnUse">
<stop stop-color="#A41BD3"/>
<stop offset="1" stop-color="#FB6464" stop-opacity="0.91"/>
</linearGradient>
<linearGradient id="paint28_linear" x1="1173.63" y1="232.32" x2="1173.63" y2="238.56" gradientUnits="userSpaceOnUse">
<stop stop-color="#A41BD3"/>
<stop offset="1" stop-color="#FB6464" stop-opacity="0.91"/>
</linearGradient>
<linearGradient id="paint29_linear" x1="1206.39" y1="171.405" x2="1206.39" y2="196.49" gradientUnits="userSpaceOnUse">
<stop stop-color="#A41BD3"/>
<stop offset="1" stop-color="#FB6464" stop-opacity="0.91"/>
</linearGradient>
</defs>
</svg>
